<?xml version="1.0" encoding="utf-8"?>
<!-- Generator: Adobe Illustrator 23.0.5, SVG Export Plug-In . SVG Version: 6.00 Build 0)  -->
<svg version="1.1" id="Layer_1" xmlns="http://www.w3.org/2000/svg" xmlns:xlink="http://www.w3.org/1999/xlink" x="0px" y="0px"
	 viewBox="0 0 112.6 57.8" style="enable-background:new 0 0 112.6 57.8;" xml:space="preserve">
<style type="text/css">
	.st0{fill:#BF2230;}
	.st1{fill:#1377BC;}
</style>
<g>
	<path class="st0" d="M41.4,3.7c5.9,0,11.9,0,17.9,0c3.5,0,4,0.7,2.1,3.9c-8.5,14.7-17,29.5-25.5,44.1c-1.9,3.4-2.5,3.3-4.5-0.1
		c-1.9-3.1-3.6-6.3-5.6-9.4c-0.9-1.6-1.5-3.2-0.6-5c1.2-2.5-0.2-3-2.3-3c-5.3,0-10.6,0-15.9,0c-4.2,0-4.6-0.6-2.7-4.1
		c4.2-7.5,8.7-15,13-22.6c1.5-2.7,3.5-3.9,6.6-3.8C29.8,3.8,35.6,3.7,41.4,3.7z M41.6,8.5c-0.1-1.8-1-2.2-2.4-1.9
		c-2,0.5-3.2,2-4.2,3.7c-3,5.5-6.2,10.8-9.2,16.3c-0.8,1.4-3,3.2-0.6,4.6c1.9,1.2,3.6-0.7,4.9-2.2c0.4-0.4,0.5-0.9,0.8-1.3
		c3.3-5.6,6.5-11.2,9.7-16.8C40.9,10,41.3,9.1,41.6,8.5z"/>
	<path class="st1" d="M88.5,3.7c5.9,0,11.9,0,17.9,0c3.1,0,3.7,1.1,2.1,3.7c-4.5,7.7-8.9,15.5-13.4,23.2c-1.4,2.5-3.5,3.6-6.4,3.5
		c-5.4-0.1-10.9,0-16.3-0.1c-2.9-0.1-4.9,1.1-6.3,3.6c-2.6,4.6-5.2,9.2-8,13.8c-2,3.5-2.6,3.5-4.6,0.2c-7.7-12.3-7.7-12.3-0.5-25
		c3.6-6.3,7.3-12.6,10.8-18.8c1.7-3.1,4.1-4.4,7.5-4.2C77.1,3.9,82.9,3.7,88.5,3.7z M72.7,31.4c1.5-0.1,2.8-0.6,3.5-1.7
		C80.3,22.9,84.3,16,88.3,9c1.1-1.9-0.3-2.7-2-2.5c-1.3,0.2-2.5,1-3.2,2c-4,6.6-7.9,13.4-11.7,20.1C70.6,30.2,71,31.2,72.7,31.4z"/>
</g>
</svg>
