<?xml version="1.0" encoding="utf-8"?>
<!-- Generator: Adobe Illustrator 23.0.5, SVG Export Plug-In . SVG Version: 6.00 Build 0)  -->
<svg version="1.1" id="Layer_1" xmlns="http://www.w3.org/2000/svg" xmlns:xlink="http://www.w3.org/1999/xlink" x="0px" y="0px"
	 viewBox="0 0 284.1 71.5" style="enable-background:new 0 0 284.1 71.5;" xml:space="preserve">
<style type="text/css">
	.st0{fill:#BF2230;}
	.st1{fill:#1377BC;}
</style>
<g>
	<path class="st0" d="M46.3,7.2c6.7,0,13.5,0,20.2,0c4,0,4.5,0.8,2.4,4.4c-9.6,16.6-19.2,33.3-28.8,49.8c-2.2,3.8-2.8,3.7-5.1-0.1
		c-2.1-3.5-4.1-7.1-6.3-10.6C27.7,48.9,27,47.1,28,45c1.3-2.8-0.2-3.4-2.6-3.4c-6,0-12,0-18,0c-4.8,0-5.2-0.7-3-4.6
		c4.8-8.5,9.8-17,14.7-25.5c1.7-3,4-4.4,7.5-4.3C33.2,7.3,39.8,7.2,46.3,7.2z M46.5,12.6c-0.1-2-1.1-2.5-2.7-2.2
		c-2.3,0.6-3.6,2.3-4.8,4.2C35.6,20.8,32,26.8,28.6,33c-0.9,1.6-3.4,3.6-0.7,5.2c2.2,1.3,4.1-0.8,5.5-2.5c0.4-0.4,0.6-1,0.9-1.5
		c3.7-6.3,7.3-12.7,11-19C45.8,14.3,46.2,13.3,46.5,12.6z"/>
	<path class="st1" d="M99.6,7.2c6.7,0,13.5,0,20.2,0c3.5,0,4.2,1.2,2.4,4.2c-5.1,8.7-10.1,17.5-15.1,26.2c-1.6,2.8-4,4.1-7.2,4
		c-6.1-0.1-12.3,0-18.4-0.1c-3.3-0.1-5.5,1.2-7.1,4.1c-2.9,5.2-5.9,10.4-9,15.6c-2.3,3.9-2.9,3.9-5.2,0.2
		c-8.7-13.9-8.7-13.9-0.6-28.2c4.1-7.1,8.3-14.2,12.2-21.3c1.9-3.5,4.6-5,8.5-4.8C86.7,7.4,93.2,7.2,99.6,7.2z M81.7,38.5
		c1.7-0.1,3.2-0.7,3.9-1.9c4.7-7.7,9.2-15.5,13.7-23.4c1.2-2.1-0.3-3-2.3-2.8c-1.5,0.2-2.8,1.1-3.6,2.3c-4.5,7.5-8.9,15.1-13.2,22.7
		C79.3,37.1,79.8,38.3,81.7,38.5z"/>
	<g>
		<path class="st0" d="M157.9,52.5l-4.4-4c-1.3,1.1-2.8,2-4.5,2.6c-1.7,0.6-3.5,0.9-5.5,0.9c-2.4,0-4.5-0.4-6.4-1.3
			c-1.9-0.9-3.6-2-4.9-3.5c-1.4-1.5-2.4-3.2-3.2-5.1c-0.7-1.9-1.1-4-1.1-6.1v-0.1c0-2.1,0.4-4.2,1.1-6.1c0.8-1.9,1.8-3.7,3.2-5.1
			c1.4-1.5,3-2.7,4.9-3.5c1.9-0.9,4.1-1.3,6.5-1.3c2.3,0,4.5,0.4,6.4,1.3c1.9,0.9,3.6,2,4.9,3.5c1.4,1.5,2.4,3.2,3.2,5.1
			c0.7,1.9,1.1,4,1.1,6.1c0,0,0,0.1,0,0.1c0,2.1-0.3,4.1-1,5.9c-0.7,1.9-1.7,3.6-3.1,5.1l4.5,3.7L157.9,52.5z M156.8,35.9
			c0-1.9-0.3-3.7-1-5.5c-0.7-1.7-1.6-3.2-2.8-4.5c-1.2-1.3-2.6-2.3-4.2-3c-1.6-0.7-3.4-1.1-5.3-1.1c-1.9,0-3.7,0.4-5.3,1.1
			c-1.6,0.7-3,1.7-4.2,3c-1.2,1.3-2.1,2.7-2.7,4.4c-0.7,1.7-1,3.5-1,5.4v0.1c0,1.9,0.3,3.8,1,5.5c0.7,1.7,1.6,3.2,2.8,4.5
			c1.2,1.3,2.6,2.3,4.2,3c1.6,0.7,3.4,1.1,5.3,1.1c1.6,0,3.1-0.3,4.5-0.8c1.4-0.5,2.6-1.2,3.7-2.2l-6.1-5.2l1.6-1.8l6,5.4
			c1.1-1.2,1.9-2.7,2.5-4.3C156.5,39.5,156.8,37.8,156.8,35.9L156.8,35.9z"/>
		<path class="st0" d="M183.4,51.5v-4.2c-0.8,1.3-1.8,2.5-3.1,3.4c-1.3,0.9-3,1.4-5.1,1.4c-1.4,0-2.7-0.2-3.8-0.7
			c-1.1-0.5-2.1-1.1-2.9-1.9c-0.8-0.8-1.4-1.8-1.8-3c-0.4-1.1-0.6-2.4-0.6-3.8V28.8h2.2v13.5c0,2.3,0.6,4.2,1.9,5.6
			c1.2,1.4,3,2.1,5.3,2.1c1.1,0,2.1-0.2,3.1-0.6c1-0.4,1.8-1,2.5-1.7c0.7-0.7,1.3-1.6,1.7-2.6c0.4-1,0.6-2.1,0.6-3.3V28.8h2.2v22.7
			H183.4z"/>
		<path class="st1" d="M216.3,34.3c-0.7,1.2-1.5,2.3-2.7,3.1c-1.1,0.8-2.4,1.5-3.9,1.9c-1.5,0.4-3,0.6-4.7,0.6h-8.4v11.6h-2.3V20.3
			h11.3c1.7,0,3.3,0.2,4.7,0.6c1.4,0.4,2.6,1.1,3.7,1.9c1,0.8,1.8,1.8,2.4,3c0.6,1.2,0.8,2.5,0.8,4V30
			C217.3,31.6,216.9,33,216.3,34.3z M215,30c0-1.3-0.2-2.4-0.7-3.3c-0.5-0.9-1.1-1.7-1.9-2.4c-0.8-0.6-1.8-1.1-3-1.4
			c-1.2-0.3-2.4-0.5-3.8-0.5h-8.8v15.4h8.6c1.5,0,2.8-0.2,4-0.5c1.2-0.4,2.2-0.9,3.1-1.5c0.8-0.7,1.5-1.5,2-2.4
			C214.7,32.3,215,31.3,215,30L215,30z"/>
		<path class="st1" d="M238.8,51.5v-3.8c-0.4,0.5-0.9,1.1-1.4,1.6c-0.5,0.5-1.2,1-1.9,1.4c-0.7,0.4-1.5,0.7-2.4,1
			c-0.9,0.3-1.9,0.4-3,0.4s-2.1-0.1-3.2-0.4c-1-0.3-2-0.7-2.8-1.3c-0.8-0.6-1.5-1.3-2-2.2c-0.5-0.9-0.8-1.9-0.8-3.1v-0.1
			c0-1.2,0.2-2.2,0.7-3.2c0.5-0.9,1.2-1.7,2-2.3c0.9-0.6,1.9-1.1,3.1-1.4c1.2-0.3,2.6-0.5,4.1-0.5c1.6,0,3,0.1,4.1,0.3
			c1.2,0.2,2.3,0.4,3.4,0.7v-1c0-2.3-0.7-4-2-5.2c-1.3-1.2-3.2-1.7-5.5-1.7c-1.4,0-2.7,0.2-3.8,0.5c-1.2,0.3-2.3,0.8-3.3,1.3
			l-0.8-1.9c1.2-0.6,2.5-1.1,3.8-1.5c1.3-0.4,2.7-0.5,4.3-0.5c2.9,0,5.3,0.7,7,2.2c1.7,1.5,2.5,3.7,2.5,6.7v14.2H238.8z M238.8,40.4
			c-1-0.2-2.1-0.5-3.3-0.7c-1.3-0.2-2.7-0.3-4.4-0.3c-2.4,0-4.3,0.5-5.5,1.4c-1.3,1-1.9,2.2-1.9,3.8v0.1c0,0.8,0.2,1.6,0.5,2.2
			c0.4,0.6,0.8,1.2,1.4,1.6c0.6,0.4,1.3,0.8,2.1,1c0.8,0.2,1.6,0.4,2.5,0.4c1.2,0,2.3-0.2,3.3-0.5c1-0.3,2-0.8,2.7-1.4
			c0.8-0.6,1.4-1.3,1.9-2.2c0.5-0.9,0.7-1.8,0.7-2.8V40.4z"/>
		<path class="st1" d="M248.8,22.9v-3h2.7v3H248.8z M249.1,51.5V28.8h2.2v22.7H249.1z"/>
		<path class="st1" d="M278.8,51.5v-5.1c-0.5,0.7-1.1,1.5-1.7,2.1c-0.6,0.7-1.3,1.3-2,1.8c-0.8,0.5-1.6,0.9-2.5,1.2
			c-0.9,0.3-2,0.5-3.1,0.5c-1.4,0-2.7-0.3-4-0.8c-1.3-0.5-2.5-1.3-3.5-2.3c-1-1-1.9-2.3-2.5-3.7c-0.6-1.5-1-3.1-1-5v-0.1
			c0-1.8,0.3-3.5,1-5c0.6-1.5,1.5-2.7,2.5-3.7c1-1,2.2-1.8,3.5-2.4c1.3-0.5,2.7-0.8,4-0.8c1.1,0,2.2,0.1,3.1,0.4
			c1,0.3,1.8,0.7,2.6,1.2c0.8,0.5,1.4,1.1,2,1.7c0.6,0.7,1.2,1.3,1.6,2V19h2.2v32.5H278.8z M278.9,40.1c0-1.5-0.3-2.8-0.8-4
			c-0.5-1.2-1.2-2.2-2.1-3.1c-0.9-0.8-1.9-1.5-3-2c-1.1-0.5-2.3-0.7-3.5-0.7c-1.3,0-2.4,0.2-3.5,0.7c-1.1,0.4-2,1.1-2.8,1.9
			c-0.8,0.8-1.4,1.8-1.9,3.1c-0.5,1.2-0.7,2.6-0.7,4.1v0.1c0,1.5,0.2,2.8,0.7,4.1c0.5,1.2,1.1,2.3,1.9,3.1c0.8,0.8,1.8,1.5,2.9,2
			c1.1,0.5,2.2,0.7,3.4,0.7c1.2,0,2.3-0.2,3.5-0.7c1.1-0.5,2.1-1.1,3-2c0.9-0.9,1.6-1.9,2.1-3.1C278.7,43,278.9,41.7,278.9,40.1
			L278.9,40.1z"/>
	</g>
</g>
</svg>
