<svg id="Layer_1" data-name="Layer 1" xmlns="http://www.w3.org/2000/svg" viewBox="0 0 284.09 71.46"><defs><style>.cls-1{fill:#bf2230;}.cls-2{fill:#1377bc;}</style></defs><title>logo</title><path class="cls-1" d="M46.35,7.22c6.74,0,13.48,0,20.22,0,4,0,4.49.8,2.43,4.39q-14.32,25-28.79,49.84c-2.21,3.81-2.84,3.74-5.14-.13-2.1-3.52-4.14-7.08-6.28-10.58C27.67,48.92,27,47.08,28,45c1.29-2.76-.19-3.36-2.56-3.35-6,0-12,0-18,0-4.75,0-5.21-.69-3-4.62,4.85-8.53,9.82-17,14.67-25.53a7.7,7.7,0,0,1,7.51-4.28C33.16,7.32,39.75,7.22,46.35,7.22Zm.18,5.38c-.09-2-1.11-2.53-2.67-2.16-2.33.56-3.64,2.27-4.77,4.24C35.61,20.79,32,26.82,28.6,33c-.86,1.56-3.43,3.59-.72,5.19,2.16,1.28,4.05-.76,5.48-2.5a10.88,10.88,0,0,0,.94-1.48q5.51-9.51,11-19C45.79,14.28,46.18,13.33,46.53,12.6Z"/><path class="cls-2" d="M99.64,7.24c6.73,0,13.47,0,20.2,0,3.51,0,4.16,1.24,2.41,4.24q-7.65,13.08-15.13,26.25a7.47,7.47,0,0,1-7.22,4c-6.15-.11-12.3.05-18.45-.06a7.34,7.34,0,0,0-7.14,4.1q-4.4,7.86-9,15.6c-2.29,3.87-2.9,3.85-5.2.2-8.73-13.9-8.74-13.91-.58-28.2C63.6,26.24,67.82,19.21,71.77,12a8.52,8.52,0,0,1,8.54-4.84C86.75,7.38,93.19,7.24,99.64,7.24Zm-18,31.28a4.57,4.57,0,0,0,3.94-1.91c4.66-7.74,9.25-15.51,13.69-23.37,1.17-2.07-.27-3-2.29-2.77a4.9,4.9,0,0,0-3.56,2.35Q86.73,24.08,80.22,35.47C79.31,37.07,79.77,38.29,81.65,38.52Z"/><path class="cls-1" d="M157.88,52.46l-4.36-4A15.32,15.32,0,0,1,149,51.12a15.69,15.69,0,0,1-5.55.94,15.29,15.29,0,0,1-14.53-9.94,16.88,16.88,0,0,1-1.11-6.1v-.09a16.92,16.92,0,0,1,1.13-6.13,16.17,16.17,0,0,1,3.19-5.14,15,15,0,0,1,5-3.54,15.67,15.67,0,0,1,17.82,3.52,15.74,15.74,0,0,1,3.16,5.1,16.89,16.89,0,0,1,1.12,6.1.06.06,0,0,1,0,.09,17,17,0,0,1-1.05,6,15.74,15.74,0,0,1-3,5.06l4.45,3.74Zm-1.11-16.53a14.83,14.83,0,0,0-1-5.46A14,14,0,0,0,153,26a13,13,0,0,0-4.22-3,13,13,0,0,0-14.85,3,13.72,13.72,0,0,0-2.75,4.44,15,15,0,0,0-1,5.43v.09a14.83,14.83,0,0,0,1,5.46A13.92,13.92,0,0,0,134,45.84a12.91,12.91,0,0,0,4.21,3A12.66,12.66,0,0,0,143.54,50a12.88,12.88,0,0,0,4.54-.78A12.49,12.49,0,0,0,151.82,47l-6.06-5.17L147.41,40l6,5.44a14,14,0,0,0,2.5-4.3,15,15,0,0,0,.89-5.15Z"/><path class="cls-1" d="M183.41,51.53V47.29a10.59,10.59,0,0,1-3.11,3.39,8.64,8.64,0,0,1-5.08,1.38,10.11,10.11,0,0,1-3.84-.69,8.23,8.23,0,0,1-2.87-1.94,8.14,8.14,0,0,1-1.78-3,11.34,11.34,0,0,1-.6-3.77V28.8h2.18V42.3a8.19,8.19,0,0,0,1.87,5.64,6.77,6.77,0,0,0,5.35,2.12,8,8,0,0,0,3.09-.61,7.5,7.5,0,0,0,2.52-1.67,7.38,7.38,0,0,0,1.67-2.56,8.69,8.69,0,0,0,.6-3.27V28.8h2.19V51.53Z"/><path class="cls-2" d="M216.3,34.28a9.2,9.2,0,0,1-2.65,3.12,11.75,11.75,0,0,1-3.88,1.87,16.87,16.87,0,0,1-4.66.63h-8.42V51.53h-2.31V20.34h11.31a16.09,16.09,0,0,1,4.7.64,11.1,11.1,0,0,1,3.66,1.87,8.53,8.53,0,0,1,2.38,3,9.25,9.25,0,0,1,.85,4V30A9.23,9.23,0,0,1,216.3,34.28ZM215,30a7.41,7.41,0,0,0-.69-3.29,6.5,6.5,0,0,0-1.94-2.35,9,9,0,0,0-3-1.44,14,14,0,0,0-3.84-.49h-8.82V37.8h8.56a13.64,13.64,0,0,0,4-.54,8.85,8.85,0,0,0,3-1.54,7,7,0,0,0,2.7-5.63Z"/><path class="cls-2" d="M238.8,51.53V47.74a11.87,11.87,0,0,1-1.41,1.58,9.58,9.58,0,0,1-1.89,1.38,10.72,10.72,0,0,1-2.43,1,11,11,0,0,1-3,.38,11.33,11.33,0,0,1-3.16-.45,9,9,0,0,1-2.81-1.33,7.22,7.22,0,0,1-2-2.23,6.07,6.07,0,0,1-.78-3.12v-.09a6.61,6.61,0,0,1,.74-3.16,6.81,6.81,0,0,1,2-2.32,9.43,9.43,0,0,1,3.12-1.42,15.53,15.53,0,0,1,4.06-.49,27.55,27.55,0,0,1,4.14.26,30.86,30.86,0,0,1,3.39.72v-1a6.48,6.48,0,0,0-2-5.18,8.09,8.09,0,0,0-5.5-1.73,13.6,13.6,0,0,0-3.83.51,18.33,18.33,0,0,0-3.3,1.32l-.8-1.92A23.47,23.47,0,0,1,227.17,29a15.76,15.76,0,0,1,4.28-.54,10.21,10.21,0,0,1,7,2.22q2.53,2.23,2.54,6.69V51.53Zm0-11.1c-1-.24-2.06-.47-3.34-.69a25.93,25.93,0,0,0-4.37-.33,9.16,9.16,0,0,0-5.54,1.44,4.53,4.53,0,0,0-1.94,3.84v.08a4.48,4.48,0,0,0,.53,2.2,5,5,0,0,0,1.45,1.62,7.07,7.07,0,0,0,2.12,1,8.62,8.62,0,0,0,2.49.36,10.55,10.55,0,0,0,3.3-.51A9.24,9.24,0,0,0,236.28,48a6.8,6.8,0,0,0,1.87-2.2,5.91,5.91,0,0,0,.69-2.84Z"/><path class="cls-2" d="M248.82,22.88v-3h2.72v3Zm.27,28.65V28.8h2.18V51.53Z"/><path class="cls-2" d="M278.81,51.53V46.45a21.12,21.12,0,0,1-1.67,2.13,10.58,10.58,0,0,1-2.05,1.79,10.85,10.85,0,0,1-2.54,1.22,9.83,9.83,0,0,1-3.1.47,10.76,10.76,0,0,1-4-.8,11,11,0,0,1-3.54-2.32,11.53,11.53,0,0,1-2.52-3.72,12.31,12.31,0,0,1-1-5v-.09a12.29,12.29,0,0,1,1-5,11.89,11.89,0,0,1,2.52-3.75,11.15,11.15,0,0,1,3.54-2.36,10.41,10.41,0,0,1,4-.82,10.64,10.64,0,0,1,3.12.44,9.75,9.75,0,0,1,2.56,1.21,11.39,11.39,0,0,1,2.05,1.73,17.23,17.23,0,0,1,1.63,2.05V19H281V51.53Zm.13-11.41a9.93,9.93,0,0,0-.78-4,9.41,9.41,0,0,0-2.08-3.07,9.51,9.51,0,0,0-3-2,8.82,8.82,0,0,0-3.46-.71,9,9,0,0,0-3.5.67A8.16,8.16,0,0,0,263.31,33a8.88,8.88,0,0,0-1.9,3,11.32,11.32,0,0,0-.69,4.07v.09a11.2,11.2,0,0,0,.71,4.06,9.31,9.31,0,0,0,1.95,3.1,8.72,8.72,0,0,0,9.73,1.93,9.21,9.21,0,0,0,3-2,9.77,9.77,0,0,0,2.86-7Z"/></svg>