<?xml version="1.0" encoding="utf-8"?>
<!-- Generator: Adobe Illustrator 23.0.5, SVG Export Plug-In . SVG Version: 6.00 Build 0)  -->
<svg version="1.1" id="Group_1473" xmlns="http://www.w3.org/2000/svg" xmlns:xlink="http://www.w3.org/1999/xlink" x="0px" y="0px"
	 viewBox="0 0 26.4 41.9" style="enable-background:new 0 0 26.4 41.9;" xml:space="preserve">
<style type="text/css">
	.st0{fill:#EEBEB9;}
	.st1{fill:#263238;}
	.st2{clip-path:url(#SVGID_2_);}
	.st3{clip-path:url(#SVGID_4_);}
	.st4{fill:#BF1E2D;}
	.st5{clip-path:url(#SVGID_6_);}
	.st6{opacity:0.17;}
	.st7{fill:#FFFFFF;}
	.st8{fill:#0F75BC;}
	.st9{fill:none;}
	.st10{clip-path:url(#SVGID_8_);}
	.st11{fill:#020202;}
	.st12{clip-path:url(#SVGID_10_);}
	.st13{fill:#C71D2D;}
	.st14{clip-path:url(#SVGID_12_);}
	.st15{fill:#0E0E0E;}
	.st16{fill:#414141;}
	.st17{fill:#2D1200;}
	.st18{clip-path:url(#SVGID_14_);}
	.st19{clip-path:url(#SVGID_16_);}
	.st20{fill:#B8B8B8;}
	.st21{fill:none;stroke:#263238;stroke-width:0.15;stroke-miterlimit:10;}
</style>
<g>
	<g id="Group_1299" transform="translate(9.08 27.427)">
		<path id="Path_6666" class="st0" d="M-0.4-5.6c0.2,0.7,0.3,1.4,0.4,2.1C-0.1-3-1-1.8-1-2.1c0-0.2,0.1-0.5,0.2-0.7
			c0,0-0.3,0.4-0.4,0.4C-1.4-2.4-1.2-3-1.2-3s-0.3,0.3-0.4,0.3c-0.1-0.1,0.2-0.5,0.2-0.5S-1.8-2.8-1.8-3c0-0.1,0.4-0.7,0.4-0.7
			C-1.6-4-1.7-4.4-1.8-4.8c0-0.2,0.1-0.5,0.2-0.6L-0.4-5.6z"/>
		<path id="Path_6667" class="st1" d="M-0.9-2C-1-2-1-2-0.9-2C-1-2.1-1-2.1-1-2.1c0-0.1,0-0.3,0-0.4c-0.1,0.1-0.2,0.2-0.3,0.1
			c0,0-0.1,0-0.1,0c0-0.1,0-0.3,0-0.4c-0.1,0.1-0.3,0.2-0.3,0.1c0,0,0,0-0.1-0.1c0-0.1,0-0.1,0-0.2c-0.1,0.1-0.1,0-0.1,0
			c0,0-0.1,0-0.1-0.1c0-0.1,0.2-0.5,0.3-0.7C-1.7-4-1.8-4.4-1.9-4.8c0-0.2,0.1-0.5,0.2-0.7c0,0,0,0,0,0l1.2-0.2c0,0,0.1,0,0.1,0.1
			C-0.2-4.9-0.1-4.2,0-3.5C0-3.1-0.7-2-0.9-2L-0.9-2z M-0.8-2.8C-0.8-2.8-0.8-2.8-0.8-2.8C-0.8-2.8-0.8-2.8-0.8-2.8
			c0,0.3-0.1,0.5-0.1,0.7C-0.5-2.5-0.3-3-0.1-3.5c-0.1-0.7-0.2-1.4-0.3-2l-1.1,0.2C-1.7-5.2-1.7-5-1.7-4.8C-1.7-4.4-1.5-4-1.4-3.7
			c0,0,0,0,0,0.1C-1.5-3.4-1.6-3.2-1.7-3c0.1-0.1,0.2-0.2,0.3-0.3c0,0,0.1,0,0.1,0c0,0,0,0.1,0,0.1c-0.1,0.1-0.2,0.3-0.2,0.5
			C-1.4-2.8-1.3-2.9-1.2-3c0,0,0.1,0,0.1,0c0,0,0,0,0,0.1c-0.1,0.2-0.1,0.3-0.1,0.5C-1.1-2.6-1-2.7-0.8-2.8
			C-0.9-2.8-0.8-2.8-0.8-2.8L-0.8-2.8z"/>
		<g>
			<defs>
				<path id="SVGID_1_" d="M-1-2.1c0-0.2,0.1-0.5,0.2-0.7c0,0-0.3,0.4-0.4,0.4C-1.4-2.4-1.2-3-1.2-3s-0.3,0.3-0.4,0.3
					c-0.1-0.1,0.2-0.5,0.2-0.5S-1.8-2.8-1.8-3c0-0.1,0.4-0.7,0.4-0.7C-1.6-4-1.7-4.4-1.8-4.8c0-0.2,0.1-0.5,0.2-0.6l1.2-0.2
					c0.2,0.7,0.3,1.4,0.4,2.1C-0.2-2.9-0.5-2.4-1-2.1C-1-2-1-2-1-2.1z M-0.8-2.8C-0.8-2.8-0.8-2.8-0.8-2.8c-0.1,0.3-0.1,0.5-0.1,0.7
					C-0.5-2.5-0.3-3-0.1-3.5c-0.1-0.7-0.2-1.4-0.3-2l-1.1,0.2C-1.7-5.2-1.7-5-1.7-4.8C-1.7-4.4-1.5-4-1.4-3.7c0,0,0,0,0,0.1
					C-1.5-3.4-1.6-3.2-1.7-3c0.1-0.1,0.2-0.2,0.3-0.3c0,0,0.1,0,0.1,0c0,0,0,0.1,0,0.1c-0.1,0.1-0.2,0.3-0.2,0.5
					C-1.4-2.8-1.3-2.9-1.2-3c0,0,0.1,0,0.1,0c0,0,0,0,0,0.1c-0.1,0.2-0.1,0.3-0.1,0.5C-1.1-2.6-1-2.7-0.8-2.8
					C-0.9-2.8-0.8-2.8-0.8-2.8L-0.8-2.8z"/>
			</defs>
			<clipPath id="SVGID_2_">
				<use xlink:href="#SVGID_1_"  style="overflow:visible;"/>
			</clipPath>
			<g id="Group_1298" transform="translate(0.084 0.084)" class="st2">
				<g id="Group_1297" transform="translate(0 0)">
					<path id="Path_6668" class="st0" d="M-0.5-5.7C-0.3-5-0.2-4.3-0.1-3.6c0,0.5-0.9,1.7-0.9,1.4c0-0.2,0.1-0.5,0.2-0.7
						c0,0-0.3,0.4-0.4,0.4c-0.1,0,0.1-0.6,0.1-0.6s-0.3,0.3-0.4,0.3c-0.1-0.1,0.2-0.5,0.2-0.5s-0.4,0.4-0.4,0.3
						c0-0.1,0.4-0.7,0.4-0.7c-0.2-0.4-0.3-0.7-0.4-1.1c0-0.2,0.1-0.5,0.2-0.6L-0.5-5.7z"/>
				</g>
			</g>
		</g>
	</g>
	<g id="Group_1302" transform="translate(9.325 27.427)">
		<path id="Path_6671" class="st0" d="M-0.7-5.6c0.1,0.5,0.2,1,0.2,1.5c0,0.3-0.4,1.3-0.6,1.1s0.2-0.8,0.2-0.8
			c-0.3-0.2-0.6-0.6-0.8-0.9C-1.9-5-1.9-5.2-1.8-5.4L-0.7-5.6z"/>
		<path id="Path_6672" class="st1" d="M-1-2.9C-1.1-2.9-1.1-2.9-1-2.9c-0.3-0.2-0.1-0.7,0-0.9c-0.3-0.2-0.6-0.5-0.8-0.9
			C-1.9-5-2-5.2-1.9-5.4c0,0,0,0,0,0l1.1-0.2c0,0,0.1,0,0.1,0.1c0.1,0.5,0.2,1,0.2,1.5C-0.5-3.8-0.7-3.1-1-2.9C-1-2.9-1-2.9-1-2.9z
			 M-1.8-5.3c0,0.2,0,0.4,0.1,0.6c0.2,0.4,0.5,0.7,0.8,0.9c0,0,0,0.1,0,0.1C-1-3.6-1.2-3.2-1.1-3.1c0,0,0,0,0,0
			c0.3-0.3,0.4-0.7,0.4-1.1c0-0.5-0.1-0.9-0.2-1.4L-1.8-5.3z"/>
		<g>
			<defs>
				<path id="SVGID_3_" d="M-1.1-3c-0.2-0.2,0.2-0.8,0.2-0.8c-0.3-0.2-0.6-0.6-0.8-0.9C-1.9-5-1.9-5.2-1.8-5.4l1.1-0.2
					c0.1,0.5,0.2,1,0.2,1.5C-0.5-3.8-0.8-3-1.1-3C-1.1-3-1.1-3-1.1-3z M-1.8-5.3c0,0.2,0,0.4,0.1,0.6c0.2,0.4,0.5,0.7,0.8,0.9
					c0,0,0,0.1,0,0.1C-1-3.6-1.2-3.2-1.1-3.1c0,0,0,0,0,0c0.3-0.3,0.4-0.7,0.4-1.1c0-0.5-0.1-0.9-0.2-1.4L-1.8-5.3z"/>
			</defs>
			<clipPath id="SVGID_4_">
				<use xlink:href="#SVGID_3_"  style="overflow:visible;"/>
			</clipPath>
			<g id="Group_1301" transform="translate(0.085 0.084)" class="st3">
				<g id="Group_1300" transform="translate(0 0)">
					<path id="Path_6673" class="st0" d="M-0.8-5.7c0.1,0.5,0.2,1,0.2,1.5c0,0.3-0.4,1.3-0.6,1.1S-1-3.9-1-3.9
						c-0.3-0.2-0.6-0.6-0.8-0.9C-2-5-2-5.3-1.9-5.5L-0.8-5.7z"/>
				</g>
			</g>
		</g>
	</g>
	<g id="Group_1303" transform="translate(7.586 20.558)">
		<path id="Path_6676" class="st1" d="M0.2-4.2l0.9,5.6l-1.3,0.3l-1.3-4.3L0.2-4.2z"/>
		<path id="Path_6677" class="st1" d="M-0.2,1.7C-0.2,1.7-0.2,1.7-0.2,1.7l-1.4-4.3c0,0,0-0.1,0-0.1l1.7-1.6c0,0,0.1,0,0.1,0
			c0,0,0,0,0,0l0.9,5.6c0,0,0,0.1-0.1,0.1L-0.2,1.7L-0.2,1.7z M-1.4-2.6l1.3,4.2l1.2-0.3L0.1-4.1L-1.4-2.6z"/>
	</g>
	<g id="Group_1304" transform="translate(0.826 22.055)">
		<path id="Path_6678" d="M6.6-3c0,0,0.1,6.6,0.2,8.4C6.9,7.1,6.6,8.7,6,10.3c-0.9,1.7-1.6,3.4-2.2,5.2c0.2,0.4,0.3,0.8,0.5,1.2v0.9
			c0,0,2.1,1.4,2.3,1.4c0.2,0,0.4,0.3,0,0.6c-0.4,0.3-5.2,0.3-5.4,0.1c-0.1-0.1-0.2-0.3-0.3-0.5c0,0-0.7,0.3-0.6-0.4
			c0-0.6,0.8-3.3,0.8-3.3c-0.3-1.6-0.4-3.2-0.3-4.9c0.2-1.9,0.8-4.2,0.8-4.7S0.9,2.3,0.8,1.8s-1.3-2-0.8-3.1s1-3,1.1-3.1
			c1.1-0.2,2.3-0.2,3.4,0C5.5-4.2,6.5-4.2,6.6-3z"/>
		<path id="Path_6679" class="st1" d="M3.2,19.8c-0.7,0-1.4,0-2.1-0.1c-0.1-0.1-0.2-0.3-0.3-0.4c-0.2,0.1-0.4,0-0.5,0
			c-0.1-0.1-0.2-0.3-0.1-0.4c0-0.6,0.7-3.1,0.8-3.3c-0.3-1.6-0.4-3.2-0.3-4.9C0.8,9.4,1,8.3,1.2,7.2c0.1-0.4,0.2-0.8,0.2-1.3
			c0-0.3-0.4-2.3-0.5-3.3C0.8,2.2,0.8,1.9,0.7,1.8C0.7,1.6,0.6,1.4,0.5,1.2C0.1,0.5-0.4-0.5,0-1.3C0.3-2,0.5-2.7,0.7-3.4
			c0.1-0.4,0.2-0.7,0.4-1c1.1-0.2,2.3-0.2,3.4,0c0.1,0,0.3,0.1,0.4,0.1C5.8-4.2,6.6-4.1,6.6-3l0,0c0,0.1,0.1,6.6,0.2,8.4
			C7,7.1,6.7,8.7,6.1,10.3c-0.9,1.6-1.6,3.4-2.2,5.1c0,0.1,0.1,0.2,0.2,0.4c0.1,0.3,0.2,0.6,0.3,0.9v0.9c0.7,0.5,1.5,1,2.2,1.4l0,0
			c0.1,0,0.2,0.1,0.3,0.2c0,0.1,0,0.3-0.3,0.5C5.4,19.8,4.3,19.9,3.2,19.8z M0.8,19.1C0.9,19.1,0.9,19.1,0.8,19.1
			C0.9,19.1,0.9,19.1,0.8,19.1c0.1,0.2,0.2,0.4,0.3,0.5c0.2,0.1,4.9,0.2,5.3-0.1c0.2-0.1,0.2-0.2,0.2-0.3c0-0.1-0.1-0.1-0.1-0.1
			c-0.8-0.4-1.6-0.9-2.3-1.4c0,0,0,0,0-0.1v-0.9c-0.1-0.3-0.2-0.5-0.3-0.8c-0.1-0.2-0.1-0.3-0.2-0.4c-0.1-0.3,1.9-4.7,2.2-5.2
			c0.6-1.5,0.9-3.2,0.8-4.8C6.6,3.7,6.5-2.9,6.5-3c0-1-0.7-1.1-1.5-1.3c-0.1,0-0.3-0.1-0.4-0.1c-1.1-0.2-2.2-0.2-3.3,0
			C1.1-4,1-3.7,0.9-3.4C0.7-2.6,0.4-1.9,0.1-1.3c-0.4,0.8,0.1,1.7,0.5,2.4c0.1,0.2,0.2,0.4,0.3,0.7c0,0.1,0.1,0.4,0.1,0.7
			c0.2,1.1,0.5,3,0.5,3.3c0,0.4-0.1,0.9-0.2,1.3c-0.2,1.1-0.4,2.2-0.5,3.4c-0.1,1.6,0,3.3,0.3,4.9c0,0,0,0,0,0c0,0-0.8,2.7-0.8,3.3
			c0,0.1,0,0.2,0.1,0.3C0.5,19.2,0.7,19.2,0.8,19.1C0.8,19.1,0.8,19.1,0.8,19.1L0.8,19.1z"/>
	</g>
	<g id="Group_1311" transform="translate(0 6.993)">
		<path id="Path_6680" class="st4" d="M3.2-1.2C2.9-1,2.6-0.7,2.3-0.4C2.2-0.2,0.7,2,0.7,3.6c0,1.5,1.1,6.2,1.1,6.2l-1.7,4.4
			l0.5,0.2l0.5-0.5v0.8c0.6,0.5,1.3,0.8,2.1,1C4.3,16,5.4,16,6.6,15.6L7.1,12v3.6l0.7-0.4l0-6c0,0,0.5-3.2,0.5-4.1S6.9,1.3,6.2,0.5
			C5.6-0.2,4.9-0.8,4.1-1.3C3.8-1.5,3.2-1.2,3.2-1.2z"/>
		<path id="Path_6681" class="st4" d="M4.6,16c-0.5,0-1-0.1-1.4-0.2c-0.8-0.2-1.5-0.6-2.1-1c0,0,0,0,0-0.1V14l-0.4,0.4
			c0,0,0,0-0.1,0l-0.5-0.2c0,0-0.1-0.1,0-0.1l1.7-4.4C1.6,9.4,0.6,5.1,0.6,3.6c0-1.4,1.2-3.2,1.6-3.8c0.1-0.1,0.1-0.1,0.1-0.2
			C2.6-0.7,2.8-1,3.2-1.3c0,0,0,0,0,0c0,0,0.6-0.3,1,0c0.1,0.1,0.2,0.1,0.3,0.2c0.7,0.4,1.3,1,1.8,1.5C6.9,1.3,8.5,4.1,8.5,5
			c0,0.9-0.5,4-0.5,4.1l0,6c0,0,0,0,0,0.1l-0.7,0.4c0,0-0.1,0-0.1,0c0,0,0,0,0,0v-2.7l-0.4,2.8c0,0,0,0,0,0.1
			C5.9,15.9,5.2,16,4.6,16z M1.1,14.7c1.5,1.2,3.5,1.5,5.4,0.9L7.1,12c0,0,0-0.1,0.1-0.1c0,0,0.1,0,0.1,0.1v3.5l0.5-0.4l0-6
			c0,0,0.5-3.2,0.5-4.1S6.8,1.3,6.2,0.5C5.6-0.1,5-0.6,4.4-1C4.2-1.1,4.1-1.2,4.1-1.2c-0.3-0.2-0.8,0-0.8,0C2.9-0.9,2.7-0.7,2.4-0.3
			c0,0-0.1,0.1-0.1,0.2C1.9,0.4,0.8,2.2,0.7,3.6c0,1.5,1.1,6.2,1.1,6.2c0,0,0,0,0,0l-1.7,4.3l0.4,0.2L1,13.8c0,0,0.1,0,0.1,0
			c0,0,0,0,0,0L1.1,14.7z"/>
		<g>
			<defs>
				<path id="SVGID_5_" d="M3.1,15.7c-0.7-0.2-1.5-0.6-2.1-1v-0.8l-0.5,0.5l-0.5-0.2l1.7-4.4c0,0-1.1-4.7-1.1-6.2
					c0-1.5,1.5-3.7,1.7-3.9C2.6-0.7,2.9-1,3.2-1.2c0,0,0.6-0.3,0.9,0c0.8,0.5,1.5,1.1,2.1,1.7C6.9,1.3,8.4,4.1,8.4,5
					S7.9,9.1,7.9,9.1l0,6l-0.7,0.4V12l-0.6,3.6c-0.7,0.2-1.3,0.3-2,0.3C4.1,15.9,3.6,15.9,3.1,15.7z M1.1,13.8
					C1.1,13.8,1.1,13.8,1.1,13.8l0,0.9c0.6,0.4,1.3,0.8,2,1c1.1,0.3,2.3,0.2,3.3-0.1L7.1,12c0,0,0-0.1,0.1-0.1c0,0,0.1,0,0.1,0.1
					v3.5l0.5-0.4l0-6c0,0,0.5-3.2,0.5-4.1S6.8,1.3,6.2,0.5C5.6-0.1,5-0.6,4.4-1C4.2-1.1,4.1-1.2,4.1-1.2c-0.3-0.2-0.8,0-0.8,0
					C2.9-0.9,2.7-0.7,2.4-0.3c0,0-0.1,0.1-0.1,0.2C1.9,0.4,0.8,2.2,0.7,3.6c0,1.5,1.1,6.2,1.1,6.2c0,0,0,0,0,0l-1.7,4.3l0.4,0.2
					L1.1,13.8C1,13.8,1.1,13.8,1.1,13.8C1.1,13.8,1.1,13.8,1.1,13.8z"/>
			</defs>
			<clipPath id="SVGID_6_">
				<use xlink:href="#SVGID_5_"  style="overflow:visible;"/>
			</clipPath>
			<g id="Group_1310" transform="translate(0.084 0.084)" class="st5">
				<g id="Group_1309" transform="translate(0 0)">
					<g id="Group_1305" class="st6">
						<path id="Path_6682" class="st4" d="M3.1-1.3C2.8-1.1,2.5-0.8,2.3-0.5C2.1-0.2,0.6,1.9,0.6,3.5s1.1,6.2,1.1,6.2L0,14.1
							l0.5,0.2L1,13.8v0.8c0.6,0.5,1.3,0.8,2.1,1c1.1,0.3,2.3,0.2,3.4-0.1l0.6-3.6v3.6L7.7,15l0-6c0,0,0.5-3.2,0.5-4.1
							S6.8,1.2,6.1,0.4C5.5-0.3,4.8-0.9,4-1.4C3.7-1.6,3.1-1.3,3.1-1.3z"/>
					</g>
					<g id="Group_1306" transform="translate(1.164 6.791)">
						<path id="Path_6683" class="st4" d="M1.3-1.9C1.3-1.9,1.3-1.9,1.3-1.9C0.8-2.1,0.3-2.4-0.2-2.8c0,0,0-0.1,0-0.1
							c0,0,0.1,0,0.1,0l0,0c0.5,0.3,1,0.6,1.5,0.9C1.4-2,1.4-1.9,1.3-1.9C1.4-1.9,1.4-1.9,1.3-1.9L1.3-1.9z"/>
					</g>
					<g id="Group_1307" transform="translate(1.497 7.648)">
						<path id="Path_6684" class="st4" d="M1.3-2.7c-0.5,0-1.1-0.1-1.6-0.3c0,0-0.1,0,0-0.1c0,0,0-0.1,0.1,0l0,0
							c0.5,0.1,1,0.2,1.5,0.3C1.3-2.8,1.4-2.8,1.3-2.7C1.4-2.7,1.3-2.7,1.3-2.7z"/>
					</g>
					<g id="Group_1308" transform="translate(3.357 15.276)">
						<path id="Path_6685" class="st4" d="M2-3.6L2-3.6l-2.7-0.3c0,0-0.1,0-0.1-0.1v0c0,0,0-0.1,0.1-0.1L2-3.7l0.1-0.5l-2.8-0.3
							c0,0-0.1,0-0.1-0.1c0,0,0-0.1,0.1-0.1l2.9,0.3c0,0,0.1,0,0.1,0.1c0,0,0,0,0,0L2-3.6C2.1-3.6,2.1-3.6,2-3.6z"/>
					</g>
				</g>
			</g>
		</g>
	</g>
	<g id="Group_1312" transform="translate(3.75 7.346)">
		<path id="Path_6688" class="st7" d="M-0.7-1.5l2.8,3l1.6,3.1c-0.1-1-0.4-2-0.6-2.9C2.7,1.1,1.4-0.5,1.2-0.8S-0.7-1.5-0.7-1.5z"/>
		<path id="Path_6689" class="st1" d="M3.7,4.7C3.7,4.7,3.6,4.7,3.7,4.7L2,1.6l-2.8-3c0,0,0-0.1,0-0.1c0,0,0,0,0.1,0
			c0.3,0,1.8,0.3,2,0.7c0.2,0.3,0.5,0.7,0.7,1c0.4,0.5,0.8,1,1.1,1.5C3.4,2.7,3.6,3.6,3.7,4.7C3.8,4.7,3.7,4.7,3.7,4.7
			C3.7,4.7,3.7,4.7,3.7,4.7z M-0.5-1.4l2.6,2.9c0,0,0,0,0,0l1.4,2.7C3.4,3.4,3.2,2.6,3,1.7c-0.3-0.5-0.7-1-1.1-1.5
			c-0.3-0.3-0.5-0.7-0.7-1C1.1-1,0.2-1.2-0.5-1.4L-0.5-1.4z"/>
	</g>
	<g id="Group_1313" transform="translate(7.019 9.892)">
		<path id="Path_6690" class="st8" d="M-0.3,0.6l0.8,1.5c0,0-0.2-1.6-0.5-2.5l-0.2-0.5c-0.2-0.4-0.5-0.7-0.7-1.1L-1.4-2l0.2,1
			l0.6,0.5L-0.3,0.6z"/>
		<path id="Path_6691" class="st9" d="M0.4,2.2C0.4,2.2,0.4,2.1,0.4,2.2l-0.8-1.5c0,0,0,0,0,0l-0.3-1.2l-0.5-0.4c0,0,0,0,0,0l-0.2-1
			c0,0,0-0.1,0.1-0.1c0,0,0,0,0,0L-0.9-2c0,0,0,0,0,0c0.3,0.3,0.5,0.7,0.7,1.1L0-0.4C0.2,0.5,0.5,2.1,0.4,2.2
			C0.5,2.1,0.5,2.2,0.4,2.2C0.4,2.2,0.4,2.2,0.4,2.2L0.4,2.2z M-0.3,0.6l0.6,1.1C0.2,1.2,0,0.3-0.1-0.4l-0.2-0.5
			c-0.2-0.4-0.4-0.7-0.7-1l-0.3-0.1L-1.1-1l0.5,0.4c0,0,0,0,0,0L-0.3,0.6z"/>
	</g>
	<g id="Group_1314" transform="translate(7.019 8.765)">
		<path id="Path_6692" class="st7" d="M-1.1-1.7l0.1,0.2l0.5,0.5l0.3,1.4l-1.2-1.2C-1.3-1.2-1.2-1.5-1.1-1.7z"/>
		<path id="Path_6693" class="st7" d="M-0.2,0.4C-0.2,0.4-0.3,0.4-0.2,0.4l-1.2-1.2c0,0,0,0,0-0.1c0.1-0.3,0.2-0.6,0.3-0.9
			c0,0,0,0,0.1,0c0,0,0,0,0.1,0l0.6,0.7c0,0,0,0,0,0L-0.2,0.4C-0.2,0.3-0.2,0.3-0.2,0.4C-0.2,0.4-0.2,0.4-0.2,0.4z M-1.3-0.9l1,1
			L-0.6-1l-0.5-0.6C-1.2-1.4-1.3-1.1-1.3-0.9L-1.3-0.9z"/>
	</g>
	<g id="Group_1326" transform="translate(3.43 0)">
		<g id="Group_1321" transform="translate(0)">
			<g id="Group_1320">
				<path id="Path_6694" class="st0" d="M3.8,1.4C4.1,1.7,4.4,2,4.5,2.4c0,0.4,0,0.8-0.1,1.1c0,0.2,0.5,0.6,0.4,0.8S4.4,4.5,4.4,4.5
					S4,6,3.9,6.3c-0.1,0.2-0.6,0.2-1,0.1l-0.7,2L0,5.8l0.3-1c-0.5-0.7-0.9-1.5-1-2.4c-0.1-1.2,0.9-2.1,2.3-2.2c1-0.2,2,0.1,2.7,0.8
					C4.5,1.1,3.8,1.4,3.8,1.4z"/>
				<path id="Path_6695" class="st0" d="M2.3,8.5C2.2,8.5,2.2,8.4,2.3,8.5L0,5.8c0,0,0,0,0-0.1l0.3-1c-0.6-0.7-0.9-1.5-1-2.4
					C-0.8,1.1,0.2,0.2,1.7,0c1-0.2,2,0.1,2.8,0.8c0,0.1,0,0.1,0,0.2C4.4,1.2,4.1,1.4,3.9,1.5C4.2,1.7,4.4,2,4.6,2.4
					c0,0.3,0,0.6-0.1,0.8c0,0.1,0,0.2,0,0.3c0,0.1,0.1,0.2,0.2,0.3C4.8,4,4.9,4.1,4.9,4.3c0,0.2-0.3,0.3-0.4,0.3
					C4.4,4.8,4.1,6.1,4,6.3C3.9,6.6,3.4,6.5,3,6.5L2.3,8.5C2.3,8.4,2.3,8.5,2.3,8.5L2.3,8.5z M0.1,5.8l2.1,2.5l0.6-1.9
					c0,0,0,0,0.1,0l0,0c0.3,0,0.8,0.1,0.9-0.1C3.9,6,4.3,4.5,4.4,4.5c0,0,0,0,0.1,0c0.1,0,0.3-0.1,0.3-0.2c0-0.1-0.1-0.3-0.2-0.4
					C4.4,3.8,4.3,3.6,4.3,3.5c0-0.1,0-0.2,0-0.3c0.1-0.3,0.1-0.5,0.1-0.8C4.4,2,3.8,1.5,3.8,1.5c0,0,0-0.1,0-0.1c0,0,0,0,0,0
					C3.9,1.3,4.3,1.2,4.3,1c0,0,0-0.1,0-0.1C3.6,0.3,2.6,0,1.7,0.2c-1.4,0.2-2.3,1-2.2,2.2c0.1,0.9,0.5,1.7,1,2.3c0,0,0,0,0,0.1
					L0.1,5.8z"/>
				<g>
					<defs>
						<path id="SVGID_7_" d="M0,5.8l0.4-1c-0.6-0.7-0.9-1.5-1-2.4c-0.1-1.2,0.9-2.1,2.3-2.2c1-0.2,2,0.1,2.7,0.8
							c0.1,0.3-0.6,0.6-0.6,0.6C4.1,1.7,4.4,2,4.5,2.4c0,0.4,0,0.8-0.1,1.1c0,0.2,0.5,0.6,0.4,0.8c0,0.2-0.4,0.3-0.4,0.3
							S4,6,3.9,6.3c-0.1,0.3-0.6,0.2-1,0.1l-0.7,2L0,5.8z M1.7,0.2c-1.4,0.2-2.3,1-2.2,2.2c0.1,0.9,0.5,1.7,1,2.3c0,0,0,0,0,0.1
							l-0.3,1l2.1,2.5l0.6-1.9c0,0,0,0,0.1,0l0,0c0.3,0,0.8,0.1,0.9-0.1C3.9,6,4.3,4.5,4.4,4.5c0,0,0,0,0.1,0c0.1,0,0.3-0.1,0.3-0.2
							c0-0.1-0.1-0.3-0.2-0.4C4.4,3.7,4.3,3.6,4.3,3.5c0-0.1,0-0.2,0-0.3c0.1-0.3,0.1-0.5,0.1-0.8C4.4,2,3.8,1.5,3.8,1.5
							c0,0,0-0.1,0-0.1c0,0,0,0,0,0C3.9,1.3,4.3,1.2,4.3,1c0,0,0-0.1,0-0.1C3.7,0.4,2.9,0.1,2.1,0.1C2,0.1,1.8,0.1,1.7,0.2z"/>
					</defs>
					<clipPath id="SVGID_8_">
						<use xlink:href="#SVGID_7_"  style="overflow:visible;"/>
					</clipPath>
					<g id="Group_1319" transform="translate(0.084 0.083)" class="st10">
						<g id="Group_1316" transform="translate(9.845 2.544)">
							<g id="Group_1315">
								<path id="Path_6696" class="st0" d="M1.7,0.8C2,1.1,2.2,1.4,2.4,1.8c0,0.4,0,0.8-0.1,1.1c0,0.2,0.5,0.6,0.4,0.8
									c0,0.2-0.4,0.3-0.4,0.3S1.9,5.4,1.8,5.7c-0.1,0.2-0.6,0.2-1,0.1l-0.7,2l-2.2-2.6l0.3-1c-0.5-0.7-0.9-1.5-1-2.4
									c-0.1-1.2,0.9-2.1,2.3-2.2c1-0.2,2,0.1,2.7,0.8C2.4,0.5,1.7,0.8,1.7,0.8z"/>
							</g>
						</g>
						<g id="Group_1318" transform="translate(0 0.916)">
							<g id="Group_1317">
								<path id="Path_6697" class="st0" d="M1.1,6.2c0.4-0.1,1-0.2,1.6-0.3l0.1-0.4c0.3,0.1,0.6,0.1,0.9,0C3.3,5.2,2.3,4.9,2,4.5
									C1.8,4,2.7,2.6,2.7,1.9S1.8,0.3,1.8,0.3C1.3-0.1,0.6-0.2-0.1-0.2c-0.4,0.4-0.7,1-0.6,1.5c0.1,0.9,0.5,1.7,1,2.4L0,4.8
									L1.1,6.2z"/>
							</g>
						</g>
					</g>
				</g>
			</g>
		</g>
		<g id="Group_1322" transform="translate(0)">
			<path id="Path_6700" class="st11" d="M3.8,1.4c0,0,0.7-0.3,0.6-0.6C3.6,0.2,2.6-0.1,1.7,0.1c-1.4,0.2-2.4,1-2.3,2.2
				c0.1,0.9,0.5,1.7,1,2.4L0.3,4.9C0.7,5,1.1,4.9,1.4,4.7C1.2,4.8,0.9,4.8,0.8,4.6c-0.3-0.3-0.3-1.1,0-1.2c0.4-0.1,0.6,0.1,0.6,0.3
				s0.1,0.1,0.3,0.1s0-0.6,0.1-0.7C2.1,3,2.3,2.8,2.4,2.6C2.6,2.3,2,2.1,1.9,1.8S3.8,1.4,3.8,1.4z"/>
			<path id="Path_6701" class="st11" d="M0.7,5C0.6,5,0.4,5,0.3,4.9c0,0,0,0,0-0.1l0-0.1c-0.6-0.7-0.9-1.5-1-2.4
				C-0.8,1.1,0.1,0.2,1.7,0c1-0.2,2,0.1,2.8,0.8c0,0.1,0,0.1,0,0.2C4.4,1.3,3.9,1.5,3.8,1.5c0,0,0,0,0,0C3.2,1.5,2.6,1.6,2,1.8
				C2,1.9,2.1,2,2.2,2.1c0.2,0.2,0.4,0.4,0.2,0.6C2.3,2.8,2.2,3,2,3.1c0,0-0.1,0-0.1,0.1c0,0,0,0.2,0,0.3c0,0.2,0,0.4-0.2,0.5
				c0,0-0.1,0-0.1,0c0,0-0.1,0-0.1,0S1.4,3.9,1.4,3.7c0-0.1,0-0.2-0.1-0.2C1.2,3.4,1,3.4,0.9,3.5c-0.1,0-0.2,0.1-0.2,0.2
				C0.6,4,0.6,4.3,0.8,4.6C1,4.7,1.2,4.7,1.4,4.7c0,0,0.1,0,0.1,0c0,0,0,0.1,0,0.1C1.2,4.9,1,5,0.7,5z M0.4,4.8
				c0.2,0.1,0.4,0.1,0.6,0c-0.1,0-0.2-0.1-0.3-0.2C0.5,4.4,0.4,4,0.5,3.7c0-0.2,0.1-0.3,0.3-0.3c0.2-0.1,0.4,0,0.6,0.1
				c0.1,0.1,0.1,0.2,0.1,0.3c0,0,0,0.1,0,0.1l0,0c0.1,0,0.1,0,0.2-0.1c0.1,0,0-0.2,0-0.3c0-0.2,0-0.3,0.1-0.4c0,0,0.1,0,0.1-0.1
				c0.2-0.1,0.3-0.2,0.4-0.4c0.1-0.1,0-0.2-0.2-0.4C2,2.1,1.9,2,1.8,1.8c0,0,0-0.1,0-0.1C2,1.5,3.5,1.4,3.8,1.4
				C3.9,1.3,4.3,1.2,4.3,1c0,0,0-0.1,0-0.1C3.6,0.3,2.6,0,1.7,0.2c-1.4,0.2-2.3,1-2.2,2.2c0.1,0.9,0.5,1.7,1,2.3c0,0,0,0,0,0.1
				L0.4,4.8z M3.8,1.4L3.8,1.4z"/>
		</g>
		<g id="Group_1323" transform="translate(5.464 6.145)">
			<path id="Path_6702" class="st1" d="M-1.4-1c-0.1,0-0.3,0-0.4-0.1c0,0,0-0.1,0-0.1c0,0,0,0,0.1,0l0,0c0.1,0.1,0.3,0.1,0.4,0.1
				c0,0,0.1,0,0.1,0.1S-1.3-1-1.4-1L-1.4-1C-1.3-1-1.4-1-1.4-1z"/>
		</g>
		<g id="Group_1324" transform="translate(5.561 4.264)">
			<path id="Path_6703" class="st1" d="M-1.4-0.6h-0.4c0,0-0.1,0-0.1-0.1c0,0,0-0.1,0-0.1l0.5-0.2c0,0,0.1,0,0.1,0c0,0,0,0.1,0,0.1
				l-0.1,0h0C-1.3-0.7-1.3-0.7-1.4-0.6C-1.3-0.6-1.3-0.6-1.4-0.6L-1.4-0.6z"/>
		</g>
		<g id="Group_1325" transform="translate(5.533 3.441)">
			<path id="Path_6704" class="st1" d="M-1.8-0.3C-1.8-0.3-1.8-0.3-1.8-0.3C-1.8-0.3-1.9-0.4-1.8-0.3c-0.1-0.1,0-0.2,0.2-0.3
				s0.4,0.1,0.5,0.2c0,0,0,0.1,0,0.1c0,0-0.1,0-0.1,0l0,0c0,0-0.2-0.2-0.3-0.1C-1.7-0.4-1.7-0.4-1.8-0.3C-1.7-0.3-1.8-0.3-1.8-0.3z"
				/>
		</g>
	</g>
	<g id="Group_1327" transform="translate(3.624 6.59)">
		<path id="Path_6705" class="st7" d="M-0.3-1.3l2.8,2.7L2.3,2.6l-3-3.2L-0.3-1.3z"/>
		<path id="Path_6706" class="st7" d="M2.3,2.7C2.3,2.7,2.3,2.7,2.3,2.7l-3-3.2c0,0,0-0.1,0-0.1l0.4-0.7c0,0,0,0,0,0c0,0,0,0,0.1,0
			l2.8,2.7c0,0,0,0,0,0.1L2.3,2.7C2.3,2.7,2.3,2.7,2.3,2.7L2.3,2.7z M-0.6-0.6l2.9,3.1l0.2-1l-2.7-2.7L-0.6-0.6z"/>
	</g>
	<g id="Group_1328" transform="translate(14.252 19.171)">
		<path id="Path_6707" class="st0" d="M-0.1-3.4c0,0-1-0.6-1.1-0.5C-1.4-3.9-3-2.7-2.9-2.5C-2.8-2.2-2-1.9-1.5-1.7
			c0.5,0.1,1,0,1.5-0.2L-0.1-3.4z"/>
		<path id="Path_6708" class="st1" d="M-1.2-1.6c-0.1,0-0.2,0-0.3-0.1C-2.4-2-2.9-2.2-2.9-2.4c0-0.1,0-0.1,0-0.2
			c0.5-0.5,1-1,1.6-1.4C-1.1-4-0.4-3.6-0.1-3.4c0,0,0,0,0,0.1l0.1,1.5c0,0,0,0.1,0,0.1C-0.4-1.7-0.7-1.6-1.2-1.6z M-1.3-3.8
			L-1.3-3.8c-0.6,0.3-1.1,0.8-1.6,1.3c0,0,0,0,0,0.1c0,0.1,0.3,0.3,1.4,0.8c0.5,0.1,0.9,0,1.4-0.2l-0.1-1.4
			C-0.5-3.5-0.9-3.7-1.3-3.8L-1.3-3.8z"/>
	</g>
	<g id="Group_1331" transform="translate(13.992 19.124)">
		<path id="Path_6709" class="st0" d="M-2.8-3.4c0.3-0.2,0.6-0.3,0.9-0.5C-1.5-3.7-1.2-3.5-1-3.2l-0.3,0.5c0,0,1,0.5,0.9,0.7
			c-0.2,0.3-0.5,0.5-0.9,0.5c-0.4,0.1-1.5-0.7-1.5-0.7L-2.8-3.4z"/>
		<path id="Path_6710" class="st1" d="M-1.3-1.6c-0.5-0.1-1.1-0.4-1.5-0.7c0,0,0,0,0-0.1l0.1-1.1c0,0,0,0,0-0.1
			c0.3-0.2,0.6-0.3,1-0.5c0.3,0.2,0.6,0.4,0.9,0.7c0,0,0,0.1,0,0.1l-0.3,0.4C-1-2.7-0.4-2.4-0.3-2.2c0,0,0,0.1,0,0.1
			C-0.6-1.8-0.9-1.6-1.3-1.6C-1.3-1.6-1.3-1.6-1.3-1.6z M-2.7-3.4l-0.1,1.1C-2.3-2-1.8-1.8-1.3-1.7c0.3,0,0.6-0.2,0.8-0.5
			C-0.7-2.4-1-2.6-1.3-2.7c0,0,0-0.1,0-0.1c0,0,0,0,0,0L-1-3.2c-0.2-0.2-0.5-0.4-0.8-0.6"/>
		<g>
			<defs>
				<path id="SVGID_9_" d="M-2.8-2.3l0.1-1.1c0.3-0.2,0.6-0.3,0.9-0.5C-1.5-3.7-1.2-3.5-1-3.2l-0.3,0.5c0,0,1,0.5,0.9,0.7
					c-0.2,0.3-0.5,0.5-0.9,0.5c0,0,0,0,0,0C-1.9-1.8-2.4-2-2.8-2.3z M-2.7-3.4l-0.1,1.1C-2.3-2-1.8-1.8-1.3-1.7
					c0.3,0,0.6-0.2,0.8-0.5C-0.7-2.4-1-2.6-1.3-2.7c0,0,0-0.1,0-0.1c0,0,0,0,0,0L-1-3.2c-0.2-0.2-0.5-0.4-0.8-0.6L-2.7-3.4z"/>
			</defs>
			<clipPath id="SVGID_10_">
				<use xlink:href="#SVGID_9_"  style="overflow:visible;"/>
			</clipPath>
			<g id="Group_1330" transform="translate(0.08 0.08)" class="st12">
				<g id="Group_1329" transform="translate(0.086 -0.08)">
					<path id="Path_6711" class="st0" d="M-2.9-3.5C-2.6-3.7-2.2-3.8-1.9-4c0.3,0.2,0.6,0.4,0.9,0.7l-0.3,0.5c0,0,1,0.5,0.9,0.7
						C-0.7-1.9-1-1.7-1.4-1.7c-0.4,0.1-1.5-0.7-1.5-0.7L-2.9-3.5z"/>
				</g>
			</g>
		</g>
	</g>
	<g id="Group_1332" transform="translate(13.184 19.307)">
		<path id="Path_6714" class="st0" d="M-2.5-3.9l0.7,0.1L-2-2.5l-0.6-0.2L-2.5-3.9z"/>
		<path id="Path_6715" class="st1" d="M-2-2.5C-2-2.5-2-2.5-2-2.5l-0.7-0.2c0,0,0,0,0-0.1l0.1-1.2c0,0,0-0.1,0.1-0.1c0,0,0,0,0,0
			l0.7,0.1c0,0,0.1,0,0.1,0.1c0,0,0,0,0,0L-2-2.5C-2-2.5-2-2.5-2-2.5L-2-2.5z M-2.6-2.8l0.5,0.2l0.2-1.1l-0.6-0.1L-2.6-2.8z"/>
	</g>
	<g id="Group_1335" transform="translate(1.432 9.94)">
		<path id="Path_6716" class="st13" d="M0.6-2C0.2-1.3,0-0.6-0.2,0.1c-0.1,0.7,2.8,6.2,3.1,6.4s6.4,0.4,6.4,0.4l0.3-1.4L4.2,4
			L2.4-1.6"/>
		<path id="Path_6717" class="st4" d="M9.3,6.9L9.3,6.9c-1,0-6.3-0.2-6.5-0.4C2.5,6.3-0.4,0.8-0.3,0.1C-0.1-0.7,0.2-1.4,0.5-2
			c0,0,0.1,0,0.1,0c0,0,0,0.1,0,0.1c0,0,0,0,0,0C0.3-1.3,0-0.6-0.2,0.1c-0.1,0.6,2.8,6.1,3,6.3c0.2,0.1,3.9,0.3,6.3,0.4l0.2-1.2
			L4.2,4c0,0,0,0,0,0L2.3-1.6c0,0,0-0.1,0-0.1c0,0,0.1,0,0.1,0l1.8,5.5l5.3,1.5c0,0,0.1,0,0,0.1L9.3,6.9C9.3,6.9,9.3,6.9,9.3,6.9z"
			/>
		<g>
			<defs>
				<path id="SVGID_11_" d="M2.8,6.5C2.6,6.3-0.3,0.8-0.2,0.1C0-0.6,0.2-1.3,0.6-2l0.1,0c0,0,0,0,0,0C0.3-1.3,0-0.6-0.2,0.1
					C-0.2,0.7,2.6,6.2,2.8,6.5c0.3,0.1,3.9,0.2,6.4,0.3l0.2-1.2L4.2,4c0,0,0,0,0,0L2.3-1.6c0,0,0,0,0,0l0.1,0L4.2,4l5.3,1.5L9.3,6.8
					C9.3,6.8,3,6.7,2.8,6.5z"/>
			</defs>
			<clipPath id="SVGID_12_">
				<use xlink:href="#SVGID_11_"  style="overflow:visible;"/>
			</clipPath>
			<g id="Group_1334" transform="translate(0.084 0.084)" class="st14">
				<g id="Group_1333" transform="translate(0 0)" class="st6">
					<path id="Path_6718" class="st4" d="M0.5-2.1C0.1-1.4-0.1-0.7-0.3,0c-0.1,0.7,2.8,6.2,3.1,6.4s6.4,0.4,6.4,0.4l0.3-1.4L4.1,3.9
						L2.3-1.7"/>
				</g>
			</g>
		</g>
	</g>
	<g id="Group_1336" transform="translate(15.044 19.18)">
		<path id="Path_6721" class="st0" d="M-1.9-3.8c0,0-0.4-0.3-0.5,0.1c-0.1,0.4-1,1.3-0.6,1.3s1.1-0.7,1.1-0.7"/>
		<path id="Path_6722" class="st1" d="M-2.9-2.4L-2.9-2.4c-0.1,0-0.1,0-0.2-0.1C-3.2-2.6-3-2.8-2.7-3.2c0.1-0.2,0.2-0.3,0.3-0.5
			c0-0.1,0.1-0.2,0.2-0.2c0.1,0,0.3,0,0.4,0.1c0,0,0,0.1,0,0.1c0,0-0.1,0-0.1,0c0,0,0,0,0,0C-2-3.8-2.1-3.8-2.2-3.8
			c0,0-0.1,0.1-0.1,0.1c-0.1,0.2-0.2,0.4-0.3,0.5C-2.8-2.9-3-2.6-3-2.5c0,0,0,0,0,0c0.3,0,0.8-0.5,1-0.7c0,0,0.1,0,0.1,0
			c0,0,0,0.1,0,0.1C-1.9-3-2.5-2.4-2.9-2.4z"/>
	</g>
	<g id="Group_1337" transform="translate(14.434 21.064)">
		<path id="Path_6723" class="st0" d="M-2.9-4.2c0,0-0.1,0.4,0.1,0.6C-2.6-3.4-2.5-3.8-2.6-4C-2.6-4.3-2.8-4.4-2.9-4.2z"/>
		<path id="Path_6724" class="st1" d="M-2.7-3.4c0,0-0.1,0-0.1,0C-3.1-3.7-3-4.2-3-4.2c0,0,0,0,0,0c0-0.1,0.1-0.2,0.2-0.2
			c0.1,0,0.2,0.2,0.2,0.3C-2.5-3.9-2.5-3.5-2.7-3.4C-2.7-3.4-2.7-3.4-2.7-3.4z M-2.8-4.2c0,0-0.1,0.4,0.1,0.6c0,0,0,0,0,0
			C-2.6-3.7-2.6-3.9-2.6-4C-2.6-4.2-2.7-4.2-2.8-4.2C-2.8-4.2-2.8-4.2-2.8-4.2L-2.8-4.2z"/>
	</g>
	<g id="Group_1338" transform="translate(14.905 21.199)">
		<path id="Path_6725" class="st0" d="M-3-4.2c0,0-0.1,0.4,0.1,0.6c0.2,0.1,0.3-0.2,0.2-0.5C-2.7-4.3-2.9-4.4-3-4.2z"/>
		<path id="Path_6726" class="st1" d="M-2.8-3.5c0,0-0.1,0-0.1,0c-0.3-0.2-0.2-0.7-0.2-0.7c0,0,0,0,0,0c0-0.1,0.1-0.2,0.2-0.2
			c0.1,0,0.2,0.1,0.2,0.3C-2.6-3.9-2.6-3.6-2.8-3.5C-2.8-3.5-2.8-3.5-2.8-3.5z M-2.9-4.2c0,0-0.1,0.4,0.1,0.6c0,0,0,0,0,0
			c0.1-0.1,0.1-0.3,0.1-0.5C-2.7-4.2-2.8-4.3-2.9-4.2C-2.9-4.3-2.9-4.2-2.9-4.2L-2.9-4.2z"/>
	</g>
	<g id="Group_1339" transform="translate(15.375 21.4)">
		<path id="Path_6727" class="st0" d="M-3.1-4.2c0,0-0.1,0.4,0.1,0.6c0.2,0.1,0.3-0.2,0.2-0.5C-2.8-4.4-3-4.5-3.1-4.2z"/>
		<path id="Path_6728" class="st1" d="M-2.9-3.5c0,0-0.1,0-0.1,0c-0.3-0.2-0.2-0.7-0.2-0.7c0,0,0,0,0,0c0-0.1,0.1-0.2,0.2-0.2
			c0.1,0,0.2,0.2,0.2,0.3C-2.7-3.9-2.7-3.6-2.9-3.5C-2.9-3.5-2.9-3.5-2.9-3.5z M-3-4.2c0,0-0.1,0.4,0.1,0.6c0,0,0,0,0,0
			c0.1-0.1,0.1-0.3,0.1-0.5C-2.8-4.2-2.9-4.3-3-4.2C-3-4.3-3-4.3-3-4.2L-3-4.2z"/>
	</g>
	<g id="Group_1340" transform="translate(15.842 21.724)">
		<path id="Path_6729" class="st0" d="M-3.2-4.4c0,0-0.1,0.3,0.1,0.4c0.1,0.1,0.2-0.2,0.2-0.3S-3.1-4.5-3.2-4.4z"/>
		<path id="Path_6730" class="st1" d="M-3-3.8C-3-3.8-3.1-3.8-3-3.8C-3.4-4-3.3-4.4-3.3-4.4c0,0,0,0,0,0c0-0.1,0.1-0.1,0.2-0.1
			c0.1,0,0.2,0.1,0.2,0.2C-2.8-4.1-2.8-4-3-3.8C-3-3.8-3-3.8-3-3.8z M-3.1-4.3c0,0-0.1,0.3,0.1,0.3c0,0,0,0,0,0
			c0.1-0.1,0.1-0.2,0.1-0.3C-3-4.3-3-4.4-3.1-4.3C-3.1-4.4-3.1-4.4-3.1-4.3L-3.1-4.3z"/>
	</g>
	<g id="Group_1341" transform="translate(17.717 19.811)">
		<path id="Path_6731" class="st1" d="M-3.5-2.2C-3.6-2.2-3.6-2.3-3.5-2.2L-3.7-4c0,0,0-0.1,0.1-0.1c0,0,0,0,0,0l0.5,0
			c0,0,0.1,0,0.1,0.1c0,0,0,0,0,0l0.1,1.6c0,0,0,0.1,0,0.1L-3.5-2.2C-3.5-2.2-3.5-2.2-3.5-2.2z M-3.5-4l0.1,1.6L-3-2.5L-3.1-4
			L-3.5-4z"/>
	</g>
	<g id="Group_1342" transform="translate(18.22 18.267)">
		<path id="Path_6732" class="st15" d="M-3.7-2.6l0.3,2L1-1.1l0.1-2.6L-3.7-2.6z"/>
		<path id="Path_6733" class="st15" d="M-3.4-0.5C-3.5-0.5-3.5-0.6-3.4-0.5l-0.3-2.1c0,0,0-0.1,0.1-0.1l4.8-1.1c0,0,0.1,0,0.1,0.1
			c0,0,0,0,0,0L1.1-1.1C1.1-1.1,1-1,1-1L-3.4-0.5L-3.4-0.5z M-3.6-2.6l0.2,1.9l4.3-0.5L1-3.6L-3.6-2.6z"/>
	</g>
	<g id="Group_1343" transform="translate(5.767 29.816)">
		<path id="Path_6734" class="st7" d="M-1.1,7.7L-1.1,7.7C-1.2,7.7-1.2,7.7-1.1,7.7L-1.1,7.7c0-1.1,0.2-2.2,0.5-3.2
			C-0.2,3.4,0,2.3,0.1,1.1c0-1.8,0.8-7.2,0.8-7.2c0,0,0-0.1,0.1-0.1c0,0,0.1,0,0.1,0.1c0,0,0,0,0,0c0,0.1-0.8,5.4-0.8,7.2
			C0.1,2.3-0.1,3.5-0.4,4.6C-0.8,5.6-1,6.6-1.1,7.7C-1.1,7.7-1.1,7.7-1.1,7.7z"/>
	</g>
	<g id="Group_1346" transform="translate(2.02 49.884)">
		<g id="Group_1344" transform="translate(0 0)">
			<path id="Path_6735" class="st16" d="M-0.1-8.2C0.2-8,4.9-8,5.3-8.3c0.4-0.3,0.2-0.6,0-0.6c-0.2,0-2.3-1.4-2.3-1.4
				C2.5-9.8,1.9-9.5,1.3-9.2C0.8-9,0.2-9-0.3-8.9v0.3C-0.3-8.5-0.2-8.3-0.1-8.2z"/>
			<path id="Path_6736" class="st16" d="M2-8C1.3-8,0.6-8-0.1-8.2c-0.1-0.1-0.3-0.3-0.3-0.5c0,0,0,0,0,0v-0.3c0,0,0-0.1,0.1-0.1
				c0.6,0,1.1-0.1,1.6-0.3c0.6-0.3,1.2-0.7,1.8-1.1c0,0,0.1,0,0.1,0c0.7,0.5,1.5,1,2.3,1.4l0,0c0.1,0,0.2,0.1,0.3,0.2
				c0,0.1,0,0.3-0.3,0.5C4.3-8,3.1-8,2-8z M0-8.3c0.2,0.1,4.9,0.2,5.3-0.1c0.2-0.1,0.2-0.2,0.2-0.3c0-0.1-0.1-0.1-0.1-0.1
				c-0.8-0.4-1.6-0.9-2.3-1.4C2.5-9.8,2-9.4,1.3-9.1C0.8-9,0.3-8.9-0.3-8.9v0.2C-0.2-8.5-0.1-8.4,0-8.3L0-8.3z"/>
		</g>
		<g id="Group_1345" transform="translate(0.045 1.997)">
			<path id="Path_6737" class="st16" d="M5.3-10.3c0.2-0.1,0.3-0.3,0.2-0.4c-0.6,0.1-1.3,0.2-1.9,0.2c-1.3,0-3.3,0-4-0.1
				c0.1,0.1,0.1,0.3,0.3,0.4C0.1-10,4.9-10,5.3-10.3z"/>
			<path id="Path_6738" class="st16" d="M1.9-10c-0.7,0-1.4,0-2.1-0.1c-0.1-0.1-0.2-0.2-0.3-0.4c0,0,0,0,0-0.1c0,0,0,0,0.1,0
				c0.8,0,2.7,0.1,4,0.1c0.6,0,1.3-0.1,1.9-0.2c0,0,0.1,0,0.1,0c0,0.1,0,0.3-0.3,0.5l0,0C4.2-10,3.1-10,1.9-10z M-0.2-10.5
				c0,0.1,0.1,0.2,0.2,0.2c0.2,0.1,4.9,0.2,5.3-0.1l0,0c0.1-0.1,0.2-0.2,0.2-0.3c-0.6,0.1-1.2,0.2-1.8,0.2
				C2.4-10.4,0.6-10.5-0.2-10.5L-0.2-10.5z M5.3-10.3L5.3-10.3z"/>
		</g>
	</g>
	<g id="Group_1347" transform="translate(1.215 47.208)">
		<path id="Path_6739" d="M0.3-6l0.1-0.3l0.2-3.5c0,0-0.8,2.7-0.8,3.4C-0.2-5.9,0.1-5.9,0.3-6z"/>
		<path id="Path_6740" d="M0.2-5.9C0.1-5.9,0-5.9-0.1-6c-0.1-0.1-0.2-0.3-0.1-0.4c0-0.6,0.8-3.2,0.8-3.4c0,0,0-0.1,0.1,0
			c0,0,0,0,0,0.1L0.5-6.2c0,0,0,0,0,0L0.4-5.9c0,0,0,0,0,0C0.3-5.9,0.2-5.9,0.2-5.9z M0.3-6L0.3-6z M0.5-9.1
			C0.3-8.2,0.1-7.3-0.1-6.4c0,0.1,0,0.2,0.1,0.3C0.1-6,0.2-6,0.3-6l0.1-0.2L0.5-9.1z"/>
	</g>
	<g id="Group_1348" transform="translate(24.742 28.478)">
		<path id="Path_6741" class="st1" d="M-4.9-5.8c0,0-0.4,6.3,0,8.9s1.5,7,1.7,7.5c0.1,0.3,0.1,0.7,0.1,1l2.4,0.3
			c0,0-0.7-8.4-0.7-9.3s0.8-8.3,0.8-8.3L-4.9-5.8z"/>
		<path id="Path_6742" class="st1" d="M-0.7,12L-0.7,12l-2.4-0.3c0,0-0.1,0-0.1-0.1c0-0.3,0-0.7-0.1-1C-3.5,10-4.5,5.6-4.9,3
			c-0.4-2.5,0-8.8,0-8.9c0,0,0-0.1,0.1-0.1c0,0,0,0,0,0l4.2,0.1c0,0,0,0,0,0c0,0,0,0,0,0.1c0,0.1-0.8,7.3-0.8,8.3S-0.7,11.8-0.7,12
			C-0.7,11.9-0.7,12-0.7,12C-0.7,12-0.7,12-0.7,12L-0.7,12z M-3,11.5l2.2,0.3c-0.1-0.9-0.7-8.3-0.7-9.3s0.7-7.4,0.8-8.2l-4.1-0.1
			c0,0.7-0.4,6.4,0,8.8c0.4,2.6,1.5,6.9,1.7,7.5C-3.1,10.8-3,11.2-3,11.5L-3,11.5z"/>
	</g>
	<g id="Group_1349" transform="translate(23.516 50.365)">
		<path id="Path_6743" class="st17" d="M-1.9-10.3c0,0-2.6,1.1-2.9,1.3C-5.1-8.8-4.1-8.5-3-8.5s2.3-0.1,2.3-0.1l0.5-0.3l0,0.3h1.2
			C1.2-9,1.2-9.4,1.2-9.9C1.1-10,1.1-10.2,1-10.4L-1.9-10.3z"/>
		<path id="Path_6744" class="st17" d="M-3-8.5c-0.8,0-1.8-0.2-1.9-0.4c0-0.1,0-0.1,0.1-0.2c0.3-0.2,2.8-1.3,2.9-1.3c0,0,0,0,0,0
			l2.8,0c0,0,0,0,0.1,0c0.1,0.2,0.2,0.3,0.2,0.5c0,0.4,0,0.9-0.1,1.3c0,0,0,0.1-0.1,0.1h-1.2c0,0-0.1,0-0.1-0.1l0-0.2l-0.4,0.2
			c0,0,0,0,0,0C-0.7-8.6-1.8-8.5-3-8.5z M-1.9-10.3C-2-10.2-4.4-9.2-4.7-9c0,0,0,0,0,0C-4.2-8.6-3.6-8.5-3-8.6
			c1.1,0,2.1-0.1,2.3-0.1L-0.2-9c0,0,0.1,0,0.1,0c0,0,0,0,0,0l0,0.2H1c0.1-0.4,0.1-0.8,0.1-1.2C1.1-10,1-10.2,0.9-10.3L-1.9-10.3z"
			/>
	</g>
	<g id="Group_1352" transform="translate(24.497 27.675)">
		<g id="Group_1350" transform="translate(0 0)">
			<path id="Path_6745" class="st15" d="M-5-5.5c0,0,0.2,6.1,0.7,8.2s1.4,7.4,1.4,8c0,0.3,0,0.6-0.1,0.9l-0.2,0.6
				c0,0.1,0.1,0.3,0.1,0.4c0.6,0.1,1.2,0.2,1.8,0.3c0.5,0,0.9-0.1,1.3-0.2c0,0,0-1.3,0.1-2S0,5.9,0,4.9s-0.3-1.5-0.3-2.7
				s-0.2-4.4-0.2-4.9s0.6-1.1,0.8-1.7s0.3-1.3,0.3-1.3L-5-5.5z"/>
			<path id="Path_6746" class="st15" d="M-1.2,12.8c-0.6,0-1.2-0.1-1.8-0.3c0,0,0,0,0,0c-0.1-0.1-0.1-0.3-0.1-0.4c0,0,0,0,0,0
				l0.2-0.6C-3,11.3-3,11-3,10.7c0-0.5-0.9-5.8-1.4-8c-0.5-2.1-0.7-8.2-0.7-8.2c0,0,0-0.1,0.1-0.1c0,0,0,0,0,0l5.6-0.1
				c0,0,0,0,0.1,0c0,0,0,0,0,0.1c0,0-0.1,0.7-0.3,1.3C0.3-4,0.2-3.7,0-3.4c-0.2,0.2-0.3,0.5-0.3,0.8c0,0.3,0,1.3,0.1,2.3
				c0,1,0.1,2,0.1,2.6c0,0.5,0,1,0.1,1.5C0,4.1,0,4.5,0.1,4.9c0,0.4,0,1.4,0.1,2.5c0.1,1.4,0.1,2.9,0.1,3.2c0,0.6-0.1,1.9-0.1,2
				c0,0,0,0.1,0,0.1C-0.3,12.8-0.8,12.8-1.2,12.8z M-3,12.5c0.6,0.1,1.2,0.2,1.8,0.2c0.4,0,0.9-0.1,1.3-0.2c0-0.2,0-1.4,0.1-1.9
				c0-0.4,0-1.8-0.1-3.2c0-1-0.1-2-0.1-2.5c0-0.4,0-0.8-0.1-1.2c-0.1-0.5-0.1-1-0.1-1.5c0-0.6,0-1.6-0.1-2.6c0-1.1-0.1-2-0.1-2.3
				C-0.4-3-0.3-3.3-0.1-3.5C0-3.8,0.2-4.1,0.3-4.4c0.1-0.5,0.2-1,0.2-1.2l-5.4,0.1C-4.9-2.8-4.6,0-4.2,2.7c0.5,2.2,1.4,7.5,1.4,8
				c0,0.3,0,0.6-0.1,1l-0.2,0.5C-3.1,12.2-3.1,12.4-3,12.5L-3,12.5z"/>
		</g>
		<g id="Group_1351" transform="translate(0.641 8.208)">
			<path id="Path_6747" class="st7" d="M-3.5,2.5C-3.5,2.5-3.5,2.5-3.5,2.5C-3.6,2.5-3.6,2.5-3.5,2.5c0-0.4,0-0.8-0.2-1.1
				C-4,0.9-5.2-7-5.2-7.4c0,0,0-0.1,0.1-0.1c0,0,0.1,0,0.1,0.1c0.4,2.8,1.2,8.3,1.5,8.7C-3.4,1.7-3.4,2.1-3.5,2.5
				C-3.5,2.5-3.5,2.5-3.5,2.5z"/>
		</g>
	</g>
	<g id="Group_1353" transform="translate(22.996 21.52)">
		<path id="Path_6748" class="st1" d="M-4.5-4.2c0,0-0.2,1.6-0.2,2.9c0,0.7,0,1.6,0,2.3c0,0.6,0.4,1,0.9,1.1
			c0.3,0.1,0.6,0.1,0.8,0.1l-1-6.2C-3.9-4-4.4-4.8-4.5-4.2z"/>
		<path id="Path_6749" class="st1" d="M-2.9,2.2c-0.3,0-0.6,0-0.9-0.1c-0.6-0.1-1-0.6-1-1.2c0-0.9,0-1.7,0-2.2
			c0-1.2,0.2-2.9,0.2-2.9c0,0,0,0,0,0c0-0.2,0.1-0.2,0.2-0.3c0.2,0,0.5,0.4,0.5,0.4c0,0,0,0,0,0L-2.9,2.2C-2.9,2.2-2.9,2.2-2.9,2.2
			C-2.9,2.2-2.9,2.2-2.9,2.2L-2.9,2.2z M-4.5-4.2c0,0.1-0.2,1.7-0.2,2.9c0,0.5,0,1.3,0,2.3c0,0.5,0.4,1,0.9,1.1
			C-3.5,2.1-3.3,2.1-3,2.1L-4-4c-0.1-0.2-0.3-0.4-0.4-0.4C-4.4-4.3-4.4-4.3-4.5-4.2L-4.5-4.2z"/>
	</g>
	<g id="Group_1354" transform="translate(23.184 7.708)">
		<path id="Path_6750" d="M0-1.4c0.2,0.1,0.5,0.3,0.7,0.5C0.8-0.7,1-0.5,1.1-0.2c0.7,0.7,1.3,1.5,1.8,2.3c0,0.2-1,6.9-1,6.9l1.2,6.3
			c-1.1,0.6-2.2,1-3.4,1.1c-1.2,0-2.3-0.2-3.5-0.5c-0.3-0.1-0.6-0.4-0.6-0.7c-0.1-0.9-0.2-2.7-0.3-4.3c0-2.4,0.1-4.8,0.4-7.2
			c0.2-1.4,0.7-2.7,1.4-4C-2.4-1-1-1.8,0-1.4z"/>
		<path id="Path_6751" d="M-0.5,16.5c-1.1-0.1-2.2-0.2-3.3-0.5c-0.4-0.1-0.6-0.4-0.7-0.8c-0.1-0.9-0.2-2.7-0.3-4.3
			c0-2.4,0.1-4.8,0.4-7.2c0.2-1.4,0.7-2.8,1.4-4c0.5-0.8,1.9-1.6,3-1.2h0C0.3-1.3,0.5-1.2,0.7-1C0.9-0.8,1-0.5,1.1-0.3
			C1.8,0.5,2.4,1.2,3,2c0,0.2-0.9,6.2-1,6.9l1.2,6.3c0,0,0,0.1,0,0.1c-1.1,0.6-2.2,1-3.5,1.2C-0.4,16.5-0.4,16.5-0.5,16.5z
			 M-0.6-1.5C-1.5-1.4-2.3-1-2.9-0.2C-3.6,1-4,2.3-4.2,3.7c-0.3,2.4-0.4,4.8-0.4,7.2c0.1,1.7,0.2,3.4,0.3,4.3c0,0.3,0.3,0.6,0.6,0.7
			c1.1,0.3,2.3,0.5,3.4,0.5c1.2-0.2,2.3-0.5,3.4-1.1L1.9,9c0,0,0,0,0,0c0.4-2.7,1-6.7,1-6.9C2.3,1.3,1.7,0.5,1-0.2c0,0,0,0,0,0
			C0.9-0.4,0.8-0.7,0.6-0.9C0.4-1.1,0.2-1.2,0-1.4C-0.2-1.4-0.4-1.5-0.6-1.5L-0.6-1.5z"/>
	</g>
	<g id="Group_1357" transform="translate(24.147 7.711)">
		<path id="Path_6752" class="st15" d="M0.1-0.2C0-0.5-0.2-0.7-0.3-0.9C-0.5-1.1-0.7-1.3-1-1.4c-0.9-0.2-1.9,0.1-2.6,0.8
			c-0.4,1-0.8,2-1.1,3c-0.2,1-0.3,2-0.3,3c0,0,1.1-1.4,2.7-3.1C-1.5,1.3-0.7,0.6,0.1-0.2L0.1-0.2z"/>
		<path id="Path_6753" class="st15" d="M-4.9,5.4C-5,5.4-5,5.4-4.9,5.4c-0.1-1.1,0-2.1,0.2-3.1c0.3-1,0.6-2,1.1-3c0,0,0,0,0,0
			c0.7-0.7,1.7-1,2.7-0.8C-0.7-1.4-0.5-1.2-0.3-1c0.2,0.2,0.3,0.5,0.4,0.7l0.1,0.1c0,0,0,0.1,0,0.1c0,0,0,0,0,0
			c-0.9,0.7-1.7,1.5-2.5,2.3C-3.7,3.9-4.9,5.3-4.9,5.4C-4.9,5.4-4.9,5.4-4.9,5.4z M-3.5-0.6c-0.4,1-0.8,1.9-1.1,2.9
			c-0.2,0.9-0.3,1.9-0.3,2.8c0.3-0.4,1.3-1.6,2.5-3c0.7-0.8,1.6-1.6,2.4-2.3l0,0c0,0,0,0,0,0c-0.1-0.2-0.3-0.5-0.4-0.7
			C-0.6-1.1-0.8-1.2-1-1.4C-1.9-1.6-2.9-1.3-3.5-0.6L-3.5-0.6z"/>
		<g>
			<defs>
				<path id="SVGID_13_" d="M-4.6,2.3c0.3-1,0.6-2,1.1-3c0.7-0.7,1.7-1,2.6-0.8c0.2,0.1,0.5,0.3,0.7,0.5C-0.1-0.7,0-0.5,0.1-0.2
					l0.1,0.1c-0.9,0.7-1.7,1.5-2.5,2.3c-1.5,1.7-2.7,3.1-2.7,3.1C-5,4.3-4.9,3.3-4.6,2.3z M-3.5-0.6c-0.4,1-0.8,1.9-1.1,2.9
					c-0.2,0.9-0.3,1.9-0.3,2.8c0.3-0.4,1.3-1.6,2.5-3c0.7-0.8,1.6-1.6,2.4-2.3l0,0c0,0,0,0,0,0c-0.1-0.2-0.3-0.5-0.4-0.7
					C-0.6-1.1-0.8-1.2-1-1.4c-0.2-0.1-0.4-0.1-0.6-0.1C-2.3-1.4-3-1.1-3.5-0.6z"/>
			</defs>
			<clipPath id="SVGID_14_">
				<use xlink:href="#SVGID_13_"  style="overflow:visible;"/>
			</clipPath>
			<g id="Group_1356" transform="translate(0.084 0.083)" class="st18">
				<g id="Group_1355" transform="translate(0 0)" class="st6">
					<path id="Path_6754" class="st15" d="M0-0.3C-0.1-0.6-0.2-0.8-0.4-1c-0.2-0.2-0.4-0.4-0.7-0.5C-2-1.7-3-1.4-3.7-0.7
						c-0.4,1-0.8,2-1.1,3c-0.2,1-0.3,2-0.3,3c0,0,1.1-1.4,2.7-3.1C-1.6,1.3-0.8,0.5,0-0.3L0-0.3z"/>
				</g>
			</g>
		</g>
	</g>
	<g id="Group_1358" transform="translate(24.517 7.962)">
		<path id="Path_6757" class="st7" d="M-4.1,0.1c0,0-0.6,1.8-0.7,2.3C-4.9,2.8-5,3.2-5,3.7c0,0,2.1-3.2,2.7-3.8s1.2-1.4,1.2-1.4
			l-0.5-0.1L-4.1,0.1z"/>
		<path id="Path_6758" class="st1" d="M-5,3.7C-5,3.7-5,3.7-5,3.7C-5.1,3.7-5.1,3.7-5,3.7c-0.1-0.5,0-1,0.1-1.4
			c0.2-0.5,0.7-2.3,0.7-2.3c0,0,0,0,0,0l2.5-1.7c0,0,0,0,0.1,0l0.5,0.1c0,0,0,0,0,0c0,0,0,0,0,0.1c0,0-0.7,0.9-1.2,1.4
			S-4.9,3.7-5,3.7C-5,3.7-5,3.7-5,3.7z M-4,0.1c-0.1,0.2-0.6,1.8-0.7,2.3c-0.1,0.3-0.2,0.7-0.2,1c0.5-0.7,2.1-3.1,2.5-3.6
			c0.4-0.4,1-1.1,1.1-1.3l-0.3-0.1L-4,0.1z"/>
	</g>
	<g id="Group_1359" transform="translate(25.5 9.226)">
		<path id="Path_6759" class="st7" d="M-4.9-1.8c0,0-0.3,0.7-0.3,0.8s-0.1,0.8-0.1,0.8l0.9-1.2L-4.9-1.8z"/>
		<path id="Path_6760" class="st7" d="M-5.2-0.2C-5.3-0.2-5.3-0.2-5.2-0.2C-5.3-0.3-5.3-0.3-5.2-0.2c0-0.3,0-0.8,0-0.8
			C-5.2-1.3-5.1-1.6-5-1.9c0,0,0-0.1,0.1,0c0,0,0,0,0,0l0.6,0.3c0,0,0,0.1,0,0.1c0,0,0,0,0,0L-5.2-0.2C-5.2-0.2-5.2-0.2-5.2-0.2z
			 M-4.9-1.7C-5-1.4-5.1-1.1-5.1-1c0,0,0,0.3,0,0.5l0.7-1L-4.9-1.7z"/>
	</g>
	<g id="Group_1360" transform="translate(25.68 7.34)">
		<path id="Path_6761" class="st7" d="M-2.8-1.5l-2.5,2l0.4,1.1l2.5-2.6L-2.8-1.5z"/>
		<path id="Path_6762" class="st7" d="M-4.9,1.7L-4.9,1.7C-4.9,1.7-4.9,1.7-4.9,1.7l-0.4-1.2c0,0,0-0.1,0-0.1l2.5-2c0,0,0.1,0,0.1,0
			l0.4,0.5c0,0,0,0.1,0,0.1L-4.9,1.7C-4.8,1.7-4.9,1.7-4.9,1.7z M-5.2,0.6l0.3,1l2.4-2.5l-0.4-0.4L-5.2,0.6z"/>
	</g>
	<g id="Group_1366" transform="translate(27.748 27.554)">
		<g id="Group_1361" transform="translate(0 0)">
			<path id="Path_6763" class="st0" d="M-5.2-5.6c0,0-0.4,0.9-0.5,1.2c-0.1,0.5-0.1,1,0,1.5c0,0.1,0.2,0.1,0.2,0.1
				c0,0.3,0.1,0.6,0.1,0.9c0.1,0,0.2,0,0.2,0c0,0,0.1,0.5,0.3,0.4c0.1,0,0.2-0.1,0.2-0.2c0.1,0,0.2,0,0.3-0.1C-4.1-1.9-4.1-2-4-2.2
				c0,0,0.3-0.2,0.3-0.3C-3.6-2.6-3.6-3-3.6-3s0.1,0,0.1-0.3s-0.2-2-0.2-2L-5.2-5.6z"/>
			<path id="Path_6764" class="st1" d="M-4.7-1.4c-0.2,0-0.3-0.3-0.4-0.4c-0.1,0-0.1,0-0.2,0c0,0-0.1,0-0.2-0.9
				c-0.1,0-0.2-0.1-0.2-0.2c0-0.5,0-1,0-1.6c0.1-0.3,0.5-1.2,0.5-1.2c0,0,0,0,0.1,0l1.5,0.4c0,0,0,0,0,0.1c0,0.1,0.2,1.7,0.2,2
				c0,0.2-0.1,0.3-0.1,0.3c0,0.1-0.1,0.4-0.1,0.5c0,0.1-0.3,0.3-0.4,0.3C-4-2-4.1-1.9-4.1-1.8c-0.1,0.1-0.2,0.2-0.3,0.2
				C-4.5-1.5-4.6-1.4-4.7-1.4C-4.7-1.4-4.7-1.4-4.7-1.4z M-5.3-1.9c0.1,0,0.1,0,0.2,0c0,0,0,0,0.1,0c0.1,0.2,0.2,0.4,0.2,0.4
				c0.1,0,0.2-0.2,0.2-0.2c0,0,0-0.1,0.1-0.1c0,0,0,0,0,0c0.1,0,0.2,0,0.3-0.1C-4.2-2-4.1-2.1-4.1-2.2c0,0,0,0,0,0
				c0.1-0.1,0.3-0.2,0.3-0.2C-3.7-2.6-3.6-3-3.6-3c0,0,0,0,0-0.1l0,0c0-0.1,0.1-0.2,0-0.2c0-0.2-0.2-1.6-0.2-1.9l-1.4-0.4
				c-0.1,0.2-0.3,0.9-0.4,1.1c-0.1,0.5-0.1,1,0,1.5c0,0,0.1,0.1,0.2,0.1c0,0,0.1,0,0.1,0.1C-5.4-2.5-5.3-2.2-5.3-1.9L-5.3-1.9z
				 M-5.3-1.9L-5.3-1.9z"/>
		</g>
		<g id="Group_1362" transform="translate(0.312 2.578)">
			<path id="Path_6765" class="st1" d="M-5.8-5.3L-5.8-5.3C-5.8-5.3-5.8-5.4-5.8-5.3C-5.8-5.4-5.8-5.4-5.8-5.3l0-0.9
				c0,0,0-0.1,0.1-0.1c0,0,0,0,0,0c0,0,0.1,0,0.1,0.1c0,0,0,0,0,0L-5.8-5.3C-5.7-5.3-5.7-5.3-5.8-5.3C-5.8-5.3-5.8-5.3-5.8-5.3z"/>
		</g>
		<g id="Group_1363" transform="translate(0.807 3.318)">
			<path id="Path_6766" class="st1" d="M-5.9-5.1L-5.9-5.1C-5.9-5.1-5.9-5.1-5.9-5.1C-5.9-5.2-5.9-5.2-5.9-5.1l0-1.2
				c0,0,0-0.1,0.1-0.1s0.1,0,0.1,0.1L-5.9-5.1C-5.8-5.1-5.8-5.1-5.9-5.1z"/>
		</g>
		<g id="Group_1364" transform="translate(1.484 3.409)">
			<path id="Path_6767" class="st1" d="M-6-5L-6-5C-6-5-6.1-5-6-5C-6.1-5.1-6.1-5.1-6-5l0-1.3c0,0,0-0.1,0.1-0.1c0,0,0,0,0,0
				c0,0,0.1,0,0.1,0.1c0,0,0,0,0,0L-6-5C-5.9-5-6-5-6-5C-6-5-6-5-6-5z"/>
		</g>
		<g id="Group_1365" transform="translate(2.111 3.272)">
			<path id="Path_6768" class="st1" d="M-6.1-5.4L-6.1-5.4C-6.2-5.4-6.2-5.4-6.1-5.4l0-1c0,0,0-0.1,0.1-0.1c0,0,0.1,0,0.1,0.1
				L-6.1-5.4C-6.1-5.4-6.1-5.4-6.1-5.4z"/>
		</g>
	</g>
	<g id="Group_1370" transform="translate(28.296 11.514)">
		<g id="Group_1367" transform="translate(0)">
			<path id="Path_6769" class="st15" d="M-3.1-2.3l1,0.6l-0.3,6.6l-1.7,6.2l-1.6-0.4l0.5-4.9l-0.3-5C-5.3,0.1-4.9-0.5-4.4-1"/>
			<path id="Path_6770" class="st15" d="M-4.2,11.1C-4.2,11.1-4.2,11.1-4.2,11.1l-1.6-0.4c0,0-0.1,0,0-0.1l0.5-4.9l-0.3-5
				c0,0,0,0,0,0C-5.4,0.1-5-0.6-4.4-1.1c0,0,0.1,0,0.1,0c0,0,0,0.1,0,0.1c0,0,0,0,0,0c-0.5,0.5-0.9,1.1-1.2,1.7l0.3,4.9l-0.5,4.9
				l1.5,0.4l1.7-6.2l0.3-6.5l-0.9-0.6c0,0,0-0.1,0-0.1c0,0,0.1,0,0.1,0c0,0,0,0,0,0l1,0.6c0,0,0,0,0,0.1l-0.3,6.6c0,0,0,0,0,0
				L-4.2,11.1C-4.1,11.1-4.2,11.1-4.2,11.1z"/>
		</g>
		<g id="Group_1368" transform="translate(0.321 1.405)">
			<path id="Path_6771" class="st15" d="M-5.9-0.6L-5.9-0.6C-5.9-0.6-5.9-0.6-5.9-0.6C-5.9-0.6-5.9-0.6-5.9-0.6
				c0-0.8,0.1-1.4,0.4-2.1c0,0,0.1,0,0.1,0c0,0,0,0.1,0,0.1C-5.6-2-5.7-1.3-5.9-0.6C-5.8-0.6-5.8-0.6-5.9-0.6
				C-5.9-0.6-5.9-0.6-5.9-0.6z"/>
		</g>
		<g id="Group_1369" transform="translate(0.02 2.068)">
			<path id="Path_6772" class="st15" d="M-5.8,8.1L-5.8,8.1C-5.9,8.1-5.9,8.1-5.8,8.1C-5.9,8.1-5.9,8.1-5.8,8.1l0.4-4
				c0,0-0.2-4.6-0.2-5.1c0.1-0.6,0.4-1.2,0.8-1.8c0,0,0.1,0,0.1,0c0,0,0,0.1,0,0.1C-5-2.2-5.3-1.6-5.4-1c0,0.5,0.2,5.1,0.2,5.1
				L-5.8,8.1C-5.7,8.1-5.8,8.1-5.8,8.1z"/>
		</g>
	</g>
	<g id="Group_1379" transform="translate(22.483 0.597)">
		<g id="Group_1373" transform="translate(0)">
			<path id="Path_6773" class="st0" d="M-3.5,1.3C-3.7,1.8-3.9,2.3-4,2.9c0,0.2,0.1,0.5,0.1,0.5s-0.8,1-0.7,1.1
				c0.2,0.1,0.3,0.2,0.5,0.2c0.1,0.6,0.3,1.1,0.5,1.7c0.1,0.1,1-0.2,1-0.2l1,1.2l2-1.9l-0.2-1c0.5-0.8,0.8-1.7,1-2.7
				c0-0.9-1.8-2-3-2s-2.4,0.5-2.2,0.8C-3.9,1-3.7,1.1-3.5,1.3z"/>
			<path id="Path_6774" class="st0" d="M-1.6,7.5L-1.6,7.5C-1.6,7.5-1.6,7.5-1.6,7.5l-1-1.2c-0.3,0.1-0.9,0.3-1.1,0.1
				C-3.8,5.9-4,5.4-4.1,4.8c-0.2,0-0.4-0.1-0.5-0.2c0,0-0.1-0.2,0.7-1.2C-4,3.3-4,3.1-4.1,2.9C-4,2.4-3.8,1.8-3.6,1.3
				C-3.8,1.1-4,1-4.1,0.8c-0.1-0.1-0.1-0.2,0-0.2c0.2-0.3,1.2-0.7,2.3-0.7h0c1.3,0,3.1,1.2,3.1,2.1c-0.2,0.9-0.5,1.9-1,2.7l0.2,1
				c0,0,0,0,0,0.1L-1.6,7.5C-1.5,7.5-1.5,7.5-1.6,7.5z M-2.5,6.2C-2.5,6.2-2.5,6.2-2.5,6.2l1,1.2l1.9-1.8l-0.2-1c0,0,0,0,0,0
				c0.5-0.8,0.8-1.7,1-2.6C1.1,1.1-0.6,0-1.8,0h0C-2.6,0-3.4,0.2-4,0.6c0,0,0,0.1,0,0.1c0.1,0.2,0.3,0.4,0.5,0.5c0,0,0,0,0,0.1
				c-0.2,0.5-0.4,1.1-0.5,1.6c0,0.2,0.1,0.5,0.1,0.5c0,0,0,0,0,0.1c-0.3,0.3-0.5,0.7-0.7,1C-4.4,4.6-4.2,4.7-4,4.7c0,0,0,0,0,0
				c0.1,0.6,0.3,1.1,0.5,1.6C-3.2,6.4-2.8,6.3-2.5,6.2C-2.5,6.2-2.5,6.2-2.5,6.2L-2.5,6.2z M-4.5,4.5L-4.5,4.5z"/>
			<g>
				<defs>
					<path id="SVGID_15_" d="M-2.5,6.3c0,0-0.9,0.3-1,0.2C-3.8,5.9-3.9,5.3-4,4.8c-0.2,0-0.4-0.1-0.5-0.2c-0.1-0.1,0.7-1.1,0.7-1.1
						s0-0.3-0.1-0.5c0.1-0.6,0.3-1.1,0.5-1.7C-3.7,1.1-3.9,1-4,0.8C-4.3,0.4-3.1,0-1.9-0.1s3,1.1,3,2C1,2.9,0.7,3.8,0.2,4.6l0.2,1
						l-2,1.9L-2.5,6.3z M-2.5,6.2l0.9,1.2l1.9-1.8l-0.2-1c0,0,0,0,0,0c0.5-0.8,0.8-1.7,1-2.6C1.1,1.1-0.6,0-1.8,0h0
						C-2.6,0-3.4,0.2-4,0.6c0,0,0,0.1,0,0.1c0.1,0.2,0.3,0.4,0.5,0.5c0,0,0,0,0,0.1c-0.2,0.5-0.4,1.1-0.5,1.6c0,0.2,0.1,0.5,0.1,0.5
						c0,0,0,0,0,0.1c-0.3,0.3-0.5,0.7-0.7,1C-4.4,4.6-4.2,4.7-4,4.7c0,0,0,0,0,0c0.1,0.6,0.3,1.1,0.5,1.6C-3.2,6.4-2.8,6.3-2.5,6.2
						C-2.5,6.2-2.5,6.2-2.5,6.2C-2.5,6.2-2.5,6.2-2.5,6.2z M-4.5,4.5L-4.5,4.5z"/>
				</defs>
				<clipPath id="SVGID_16_">
					<use xlink:href="#SVGID_15_"  style="overflow:visible;"/>
				</clipPath>
				<g id="Group_1372" transform="translate(0.081 0.084)" class="st19">
					<g id="Group_1371" transform="translate(1.515 1.255)">
						<path id="Path_6775" class="st20" d="M-1-0.4c-0.2,0-0.5,0.1-0.7,0.2l-1.9,0.8c0,0-0.9,0.8-0.8,1.3c0.1,0.6,0.9,1.4,0.7,2
							S-5,5.1-5,5.1l0.4,0C-4.4,5-4.1,4.9-4.1,4.9L-4,5.1l1.8,0.1l1-0.9l-0.2-1c0.5-0.8,0.8-1.7,1-2.7C-0.5,0.2-0.7-0.2-1-0.4z"/>
					</g>
				</g>
			</g>
		</g>
		<g id="Group_1374" transform="translate(0.65)">
			<path id="Path_6778" d="M-0.5,4.6c0.5-0.8,0.8-1.7,1-2.7c0-0.9-1.8-2-3-2s-2.4,0.5-2.2,0.8C-4.6,1-4.4,1.1-4.2,1.3
				c0,0,0.8,0.4,0.8,0.5c0,0.1-0.5,0.6-0.3,0.8C-3.4,2.8-3.1,2.9-2.8,3c0,0-0.1,0.4,0.1,0.5c0.2,0,0.3-0.1,0.4-0.3s0.6-0.3,0.6,0.2
				c0,0.4-0.1,0.8-0.3,1.1C-2,4.6-1.1,5.2-0.8,5c0.1,0,0.2-0.1,0.3-0.2L-0.5,4.6z"/>
			<path id="Path_6779" d="M-0.9,5.1c-0.4,0-0.8-0.2-1.1-0.5c0,0,0-0.1,0-0.1c0.2-0.3,0.3-0.7,0.3-1c0-0.2-0.1-0.3-0.2-0.3
				c-0.1,0-0.3,0-0.4,0.1c0,0-0.1,0.1-0.1,0.1c-0.1,0.1-0.2,0.2-0.4,0.2c0,0-0.1,0-0.1-0.1c0-0.1-0.1-0.3,0-0.4
				C-3.2,3-3.5,2.8-3.8,2.6c-0.1-0.2,0.1-0.5,0.2-0.7c0,0,0.1-0.1,0.1-0.1c-0.2-0.2-0.5-0.3-0.7-0.4C-4.4,1.2-4.6,1-4.8,0.8
				c-0.1-0.1-0.1-0.2,0-0.2c0.2-0.3,1.2-0.7,2.3-0.7h0c1.3,0,3.1,1.2,3.1,2.1c-0.2,0.9-0.5,1.9-1,2.7l0.1,0.2c0,0,0,0.1,0,0.1
				C-0.5,5-0.6,5.1-0.7,5.1C-0.8,5.1-0.9,5.1-0.9,5.1z M-1.9,4.6C-1.7,4.7-1.1,5.1-0.8,5c0.1,0,0.2-0.1,0.3-0.1l-0.1-0.2
				c0,0,0,0,0,0c0.5-0.8,0.8-1.7,1-2.6C0.5,1.1-1.2,0-2.5,0h0C-3.3,0-4,0.2-4.7,0.6c0,0,0,0.1,0,0.1c0.1,0.2,0.3,0.4,0.5,0.5
				c0.8,0.4,0.8,0.5,0.8,0.5s0,0.1-0.1,0.2c-0.1,0.2-0.3,0.4-0.2,0.6C-3.4,2.7-3.1,2.9-2.8,3c0,0,0.1,0,0,0.1c0,0.1,0,0.2,0,0.4
				c0,0,0,0,0,0c0.1,0,0.2,0,0.3-0.2c0,0,0.1-0.1,0.1-0.1C-2.2,3.1-2,3-1.9,3.1c0.1,0,0.2,0.1,0.3,0.4C-1.6,3.9-1.7,4.3-1.9,4.6
				L-1.9,4.6z"/>
		</g>
		<g id="Group_1376" transform="translate(1.351 4.134)">
			<path id="Path_6781" class="st1" d="M-3-0.8L-3-0.8l-1.9,0c0,0-0.1,0-0.1-0.1c0,0,0-0.1,0.1-0.1l0,0L-3-1C-3-1-2.9-0.9-3-0.8
				C-2.9-0.9-3-0.8-3-0.8z"/>
		</g>
		<g id="Group_1377" transform="translate(0.962 3.346)">
			<path id="Path_6782" class="st1" d="M-4.4-0.5C-4.5-0.5-4.5-0.5-4.4-0.5c-0.1-0.1-0.2-0.2-0.2-0.2c0,0-0.1,0.1-0.1,0.1
				c0,0-0.1,0-0.1,0c0,0,0-0.1,0-0.1c0-0.1,0.1-0.1,0.2-0.1C-4.5-0.8-4.4-0.7-4.4-0.5C-4.4-0.6-4.4-0.5-4.4-0.5
				C-4.4-0.5-4.4-0.5-4.4-0.5L-4.4-0.5z"/>
		</g>
		<g id="Group_1378" transform="translate(0.917 5.996)">
			<path id="Path_6783" class="st1" d="M-4.8-0.9C-4.8-0.9-4.9-0.9-4.8-0.9C-4.9-1-4.8-1-4.8-1c0.2-0.1,0.4-0.2,0.5-0.3
				c0,0,0.1,0,0.1,0c0,0,0,0.1,0,0.1C-4.4-1.1-4.6-1-4.8-0.9C-4.8-0.9-4.8-0.9-4.8-0.9z"/>
		</g>
	</g>
	<ellipse class="st21" cx="18.6" cy="3.8" rx="0.3" ry="0.5"/>
</g>
</svg>
