<svg id="Group_1473" data-name="Group 1473" xmlns="http://www.w3.org/2000/svg" xmlns:xlink="http://www.w3.org/1999/xlink" width="24.5" height="38.934" viewBox="0 0 24.5 38.934">
  <defs>
    <clipPath id="clip-path">
      <path id="Intersection_1" data-name="Intersection 1" d="M.774,3.3a1.8,1.8,0,0,1,.142-.651s-.285.387-.387.366.082-.549.082-.549S.306,2.767.2,2.706.429,2.2.429,2.2s-.366.387-.387.265.326-.631.326-.631A4.721,4.721,0,0,1,0,.794,1,1,0,0,1,.2.2L1.3,0a14.519,14.519,0,0,1,.325,1.974A2.748,2.748,0,0,1,.8,3.335C.787,3.335.777,3.323.774,3.3Zm.173-.7a.062.062,0,0,1,.026.078,1.869,1.869,0,0,0-.139.583,3.058,3.058,0,0,0,.733-1.282,13.429,13.429,0,0,0-.312-1.9L.24.26a.915.915,0,0,0-.177.53A4.7,4.7,0,0,0,.423,1.8a.062.062,0,0,1,0,.061,3.188,3.188,0,0,0-.3.533,2.086,2.086,0,0,0,.269-.244.062.062,0,0,1,.095.079,1.422,1.422,0,0,0-.232.419.976.976,0,0,0,.321-.235.062.062,0,0,1,.1.064,1.811,1.811,0,0,0-.11.46,1.666,1.666,0,0,0,.306-.334.062.062,0,0,1,.08-.017Z" transform="translate(0 0)" fill="none"/>
    </clipPath>
    <clipPath id="clip-path-2">
      <path id="Intersection_2" data-name="Intersection 2" d="M.716,2.421c-.224-.163.142-.773.142-.773A2.452,2.452,0,0,1,.085.794.858.858,0,0,1,.024.2L1.041,0a9.286,9.286,0,0,1,.224,1.384c-.019.28-.277,1.057-.493,1.057A.1.1,0,0,1,.716,2.421ZM.072.257A.984.984,0,0,0,.143.773a2.407,2.407,0,0,0,.75.824.062.062,0,0,1,.017.082c-.11.184-.293.594-.159.691a.034.034,0,0,0,.04,0A1.843,1.843,0,0,0,1.2,1.38,8.353,8.353,0,0,0,.994.073Z" transform="translate(0 0)" fill="none"/>
    </clipPath>
    <clipPath id="clip-path-3">
      <path id="Intersection_3" data-name="Intersection 3" d="M2.854,15.877a5.76,5.76,0,0,1-1.926-.951V14.16l-.464.51L0,14.485,1.6,10.4A40.4,40.4,0,0,1,.557,4.6C.58,3.16,2,1.141,2.111.933A6.713,6.713,0,0,1,2.9.121S3.434-.135,3.735.1A10.3,10.3,0,0,1,5.707,1.721,12.437,12.437,0,0,1,7.749,5.944c0,.835-.51,3.828-.51,3.828l-.046,5.572-.626.418V12.416l-.534,3.391a7.308,7.308,0,0,1-1.865.259A4.2,4.2,0,0,1,2.854,15.877ZM.95,14.1a.062.062,0,0,1,.039.058V14.9a6.1,6.1,0,0,0,1.883.921,6.091,6.091,0,0,0,3.1-.06L6.5,12.407a.06.06,0,0,1,.066-.052.062.062,0,0,1,.057.062v3.229l.5-.335.046-5.539c.006-.04.51-3.007.51-3.827A12.592,12.592,0,0,0,5.659,1.761,8.237,8.237,0,0,0,3.984.349C3.861.264,3.763.2,3.7.146c-.25-.192-.7,0-.763.026a6.183,6.183,0,0,0-.769.79c-.015.026-.049.08-.1.157A8.281,8.281,0,0,0,.619,4.6a40.554,40.554,0,0,0,1.042,5.784.062.062,0,0,1,0,.037L.08,14.45l.367.147.435-.479a.062.062,0,0,1,.046-.02A.061.061,0,0,1,.95,14.1Z" transform="translate(0 0)" fill="#bf1e2d"/>
    </clipPath>
    <clipPath id="clip-path-4">
      <path id="Intersection_4" data-name="Intersection 4" d="M.63,5.293l.325-.974A4.5,4.5,0,0,1,0,2.114C-.066.978.839.189,2.138.027A3.1,3.1,0,0,1,4.667.746c.139.255-.534.534-.534.534a1.84,1.84,0,0,1,.634.85,4.81,4.81,0,0,1-.116,1.044c.023.162.441.534.418.719s-.371.255-.371.255-.379,1.377-.472,1.609-.557.162-.9.116L2.695,7.729ZM2.146.088C.817.254,0,1.048.065,2.111A4.47,4.47,0,0,0,1,4.279a.062.062,0,0,1,.011.059L.7,5.279,2.671,7.605l.591-1.752a.059.059,0,0,1,.067-.041l.03,0c.311.042.736.1.809-.082.09-.226.466-1.588.469-1.6a.062.062,0,0,1,.047-.044c.079-.016.308-.087.322-.2.01-.079-.121-.249-.217-.372a.923.923,0,0,1-.2-.33,1.03,1.03,0,0,1,.046-.317,1.909,1.909,0,0,0,.07-.726c-.065-.389-.605-.807-.611-.811a.062.062,0,0,1,.014-.106c.123-.051.454-.217.508-.369a.091.091,0,0,0,0-.078A2.923,2.923,0,0,0,2.561.062,3.357,3.357,0,0,0,2.146.088Z" transform="translate(0 0)" fill="none"/>
    </clipPath>
    <clipPath id="clip-path-5">
      <path id="Intersection_5" data-name="Intersection 5" d="M0,1.481.07.423A6.031,6.031,0,0,1,.94,0a4.717,4.717,0,0,1,.8.611l-.282.423s.893.447.8.611a1.257,1.257,0,0,1-.823.47l-.04,0A4.527,4.527,0,0,1,0,1.481ZM.127.459.061,1.45a3.752,3.752,0,0,0,1.365.607,1.2,1.2,0,0,0,.779-.441,2.112,2.112,0,0,0-.774-.529A.059.059,0,0,1,1.408,1L1.662.621A4.275,4.275,0,0,0,.938.059Z" transform="translate(0 0)" fill="none"/>
    </clipPath>
    <clipPath id="clip-path-6">
      <path id="Intersection_6" data-name="Intersection 6" d="M2.844,7.86C2.646,7.687-.073,2.571,0,1.928A8.388,8.388,0,0,1,.743,0L.8.013A.062.062,0,0,1,.8.029,8.384,8.384,0,0,0,.063,1.935C0,2.52,2.666,7.612,2.885,7.813c.2.117,3.611.26,5.89.329L9,6.989,4.112,5.6a.062.062,0,0,1-.042-.04L2.39.39a.061.061,0,0,1,0-.032l.06.013L4.129,5.537,9.072,6.945,8.825,8.206S3.041,8.033,2.844,7.86Z" transform="translate(0)" fill="#bf1e2d"/>
    </clipPath>
    <clipPath id="clip-path-7">
      <path id="Intersection_7" data-name="Intersection 7" d="M.277,3.568a20.529,20.529,0,0,1,1-2.759A2.515,2.515,0,0,1,3.685.1,2.441,2.441,0,0,1,4.3.555a4.6,4.6,0,0,1,.414.65l.065.075A18.731,18.731,0,0,0,2.464,3.45C1.046,5.026,0,6.365,0,6.365A12.2,12.2,0,0,1,.277,3.568ZM1.325.846A20.409,20.409,0,0,0,.337,3.584,11.776,11.776,0,0,0,.062,6.189c.3-.382,1.213-1.511,2.356-2.78A18.989,18.989,0,0,1,4.685,1.271l-.022-.026a.062.062,0,0,1-.008-.012A4.552,4.552,0,0,0,4.248.594,2.4,2.4,0,0,0,3.656.156a1.445,1.445,0,0,0-.533-.1A2.821,2.821,0,0,0,1.325.846Z" transform="translate(0 0)" fill="#0e0e0e"/>
    </clipPath>
    <clipPath id="clip-path-8">
      <path id="Intersection_8" data-name="Intersection 8" d="M1.943,5.865s-.827.3-.96.163A9.873,9.873,0,0,1,.51,4.476a1.669,1.669,0,0,1-.5-.222c-.089-.1.65-1.019.65-1.019s-.044-.3-.089-.487A8.948,8.948,0,0,1,1,1.211,1.672,1.672,0,0,1,.51.754C.288.443,1.381.015,2.548,0S5.355,1.049,5.37,1.847a7.614,7.614,0,0,1-.945,2.482l.222.916L2.829,6.988Zm.049-.038L2.835,6.9,4.578,5.225l-.213-.882A.062.062,0,0,1,4.371,4.3a7.6,7.6,0,0,0,.937-2.45C5.294,1.088,3.717.062,2.573.062H2.549A3,3,0,0,0,.555.625.08.08,0,0,0,.56.718a1.623,1.623,0,0,0,.467.44.062.062,0,0,1,.028.075,8.114,8.114,0,0,0-.427,1.5c.044.192.088.48.09.492a.062.062,0,0,1-.013.048,4.519,4.519,0,0,0-.643.948,1.666,1.666,0,0,0,.465.194.062.062,0,0,1,.043.045,8.938,8.938,0,0,0,.456,1.522,1.921,1.921,0,0,0,.9-.177.063.063,0,0,1,.021,0A.062.062,0,0,1,1.991,5.827ZM.063,4.23h0Z" transform="translate(0 0)" fill="none"/>
    </clipPath>
  </defs>
  <g id="Group_1299" data-name="Group 1299" transform="translate(6.684 20.191)">
    <path id="Path_6666" data-name="Path 6666" d="M823.523,588.856a14.528,14.528,0,0,1,.326,1.974c-.02.427-.834,1.587-.854,1.323a1.8,1.8,0,0,1,.142-.651s-.285.387-.387.366.081-.549.081-.549-.305.305-.407.244.224-.509.224-.509-.366.387-.387.265.326-.631.326-.631a4.722,4.722,0,0,1-.366-1.038,1,1,0,0,1,.2-.59Z" transform="translate(-822.158 -588.794)" fill="#eebeb9"/>
    <path id="Path_6667" data-name="Path 6667" d="M822.584,591.813a.092.092,0,0,1-.09-.1,1.2,1.2,0,0,1,.044-.367c-.089.09-.175.15-.239.138a.092.092,0,0,1-.061-.045.656.656,0,0,1,.031-.371c-.112.086-.234.152-.314.1a.1.1,0,0,1-.047-.069.337.337,0,0,1,.041-.18c-.078.047-.111.037-.126.033a.086.086,0,0,1-.06-.072c-.021-.125.2-.474.316-.647a4.376,4.376,0,0,1-.357-1.028,1.049,1.049,0,0,1,.217-.632.061.061,0,0,1,.037-.023l1.1-.2a.062.062,0,0,1,.072.047,14.244,14.244,0,0,1,.327,1.99c-.018.368-.672,1.417-.886,1.42ZM822.7,591a.062.062,0,0,1,.057.086,1.868,1.868,0,0,0-.139.583,3.057,3.057,0,0,0,.733-1.282,13.421,13.421,0,0,0-.312-1.9l-1.016.188a.915.915,0,0,0-.177.53,4.7,4.7,0,0,0,.361,1.015.062.062,0,0,1,0,.061,3.2,3.2,0,0,0-.3.533,2.084,2.084,0,0,0,.269-.244.062.062,0,0,1,.095.079,1.426,1.426,0,0,0-.232.419.976.976,0,0,0,.321-.235.062.062,0,0,1,.1.064,1.818,1.818,0,0,0-.11.46,1.665,1.665,0,0,0,.307-.334A.062.062,0,0,1,822.7,591Z" transform="translate(-821.719 -588.354)" fill="#263238"/>
    <g id="Group_1298" data-name="Group 1298" transform="translate(0.062 0.062)" clip-path="url(#clip-path)">
      <g id="Group_1297" data-name="Group 1297" transform="translate(0 0)">
        <path id="Path_6668" data-name="Path 6668" d="M823.523,588.856a14.528,14.528,0,0,1,.326,1.974c-.02.427-.834,1.587-.854,1.323a1.8,1.8,0,0,1,.142-.651s-.285.387-.387.366.081-.549.081-.549-.305.305-.407.244.224-.509.224-.509-.366.387-.387.265.326-.631.326-.631a4.722,4.722,0,0,1-.366-1.038,1,1,0,0,1,.2-.59Z" transform="translate(-822.219 -588.856)" fill="#eebeb9"/>
      </g>
    </g>
  </g>
  <g id="Group_1302" data-name="Group 1302" transform="translate(6.865 20.191)">
    <path id="Path_6671" data-name="Path 6671" d="M824.724,588.856a9.281,9.281,0,0,1,.224,1.383c-.02.305-.326,1.2-.549,1.038s.142-.773.142-.773a2.451,2.451,0,0,1-.773-.854.857.857,0,0,1-.061-.59Z" transform="translate(-823.62 -588.794)" fill="#eebeb9"/>
    <path id="Path_6672" data-name="Path 6672" d="M824.014,590.919a.156.156,0,0,1-.093-.031c-.229-.166.007-.643.1-.806a2.327,2.327,0,0,1-.75-.852.9.9,0,0,1-.059-.637.062.062,0,0,1,.044-.034l1.017-.2a.062.062,0,0,1,.072.047,9.067,9.067,0,0,1,.225,1.4c-.017.261-.243.986-.482,1.1A.169.169,0,0,1,824.014,590.919Zm-.7-2.246a.984.984,0,0,0,.071.516,2.407,2.407,0,0,0,.75.824.062.062,0,0,1,.018.082c-.11.183-.293.594-.159.691a.034.034,0,0,0,.04,0,1.843,1.843,0,0,0,.411-.994,8.348,8.348,0,0,0-.209-1.307Z" transform="translate(-823.179 -588.355)" fill="#263238"/>
    <g id="Group_1301" data-name="Group 1301" transform="translate(0.062 0.062)" clip-path="url(#clip-path-2)">
      <g id="Group_1300" data-name="Group 1300" transform="translate(0 0)">
        <path id="Path_6673" data-name="Path 6673" d="M824.724,588.856a9.281,9.281,0,0,1,.224,1.383c-.02.305-.326,1.2-.549,1.038s.142-.773.142-.773a2.451,2.451,0,0,1-.773-.854.857.857,0,0,1-.061-.59Z" transform="translate(-823.682 -588.856)" fill="#eebeb9"/>
      </g>
    </g>
  </g>
  <g id="Group_1303" data-name="Group 1303" transform="translate(5.585 15.134)">
    <path id="Path_6676" data-name="Path 6676" d="M814.9,547.94l.867,5.161-1.221.276-1.221-3.979Z" transform="translate(-813.259 -547.878)" fill="#263238"/>
    <path id="Path_6677" data-name="Path 6677" d="M814.1,553a.062.062,0,0,1-.059-.044l-1.221-3.979a.062.062,0,0,1,.017-.063l1.576-1.458a.062.062,0,0,1,.062-.013.063.063,0,0,1,.041.048l.866,5.161a.062.062,0,0,1-.047.071l-1.221.276Zm-1.151-4.022,1.193,3.887,1.108-.25-.838-4.99Z" transform="translate(-812.821 -547.44)" fill="#263238"/>
  </g>
  <g id="Group_1304" data-name="Group 1304" transform="translate(0.608 16.236)">
    <path id="Path_6678" data-name="Path 6678" d="M779.248,558.27s.079,6.146.2,7.8a10.237,10.237,0,0,1-.709,4.491,32.3,32.3,0,0,0-2.049,4.806,8.324,8.324,0,0,1,.433,1.143v.827s1.97,1.3,2.127,1.3.355.315-.039.552a21.4,21.4,0,0,1-5,.079.966.966,0,0,1-.276-.433s-.63.236-.591-.355.749-3.112.749-3.112a23.776,23.776,0,0,1-.276-4.531c.158-1.773.709-3.9.709-4.334s-.552-3.309-.63-3.782-1.221-1.812-.709-2.876.906-2.758,1.064-2.876a10.272,10.272,0,0,1,3.152,0C778.263,557.167,779.208,557.167,779.248,558.27Z" transform="translate(-772.989 -556.789)"/>
    <path id="Path_6679" data-name="Path 6679" d="M775.664,579.008a7.808,7.808,0,0,1-1.928-.125.978.978,0,0,1-.276-.4.582.582,0,0,1-.474-.042.423.423,0,0,1-.139-.394c.038-.575.686-2.9.747-3.112a23.785,23.785,0,0,1-.274-4.532,31.07,31.07,0,0,1,.506-3.14,10.314,10.314,0,0,0,.2-1.188c0-.324-.329-2.123-.506-3.09-.059-.32-.1-.569-.123-.682a2.555,2.555,0,0,0-.258-.572,2.739,2.739,0,0,1-.446-2.341,15.82,15.82,0,0,0,.711-1.94,3.169,3.169,0,0,1,.371-.959,10.02,10.02,0,0,1,3.2-.011c.123.028.247.052.37.075.734.141,1.494.288,1.529,1.283h0c0,.061.08,6.163.2,7.8a10.216,10.216,0,0,1-.718,4.528,33.721,33.721,0,0,0-2.042,4.757c.026.076.087.218.152.367a3.063,3.063,0,0,1,.283.792v.794a23.113,23.113,0,0,0,2.069,1.272h0a.274.274,0,0,1,.238.21c.022.079.041.281-.249.456A15.658,15.658,0,0,1,775.664,579.008Zm-2.165-.669a.061.061,0,0,1,.028.007.062.062,0,0,1,.032.038.909.909,0,0,0,.255.4,23.459,23.459,0,0,0,4.933-.084c.153-.092.224-.207.194-.317a.155.155,0,0,0-.123-.12,19.78,19.78,0,0,1-2.161-1.31.061.061,0,0,1-.028-.052v-.827a3.58,3.58,0,0,0-.273-.743c-.069-.158-.129-.3-.157-.38a31.169,31.169,0,0,1,2.055-4.858,10.263,10.263,0,0,0,.7-4.454c-.116-1.632-.2-7.7-.2-7.8-.032-.9-.68-1.021-1.429-1.165-.125-.024-.25-.048-.374-.076a10.688,10.688,0,0,0-3.1-.01,4.984,4.984,0,0,0-.327.9,15.9,15.9,0,0,1-.717,1.956c-.352.732.108,1.6.443,2.229a2.521,2.521,0,0,1,.271.61c.019.112.064.361.123.68.19,1.038.508,2.776.508,3.112a9.94,9.94,0,0,1-.205,1.212,30.992,30.992,0,0,0-.5,3.127,23.872,23.872,0,0,0,.275,4.516.064.064,0,0,1,0,.026c-.007.025-.708,2.522-.746,3.1a.312.312,0,0,0,.089.287.52.52,0,0,0,.418.006A.061.061,0,0,1,773.5,578.339Z" transform="translate(-772.558 -556.355)" fill="#263238"/>
  </g>
  <g id="Group_1311" data-name="Group 1311" transform="translate(0 5.148)">
    <path id="Path_6680" data-name="Path 6680" d="M771.036,467.266a6.705,6.705,0,0,0-.789.812c-.116.209-1.531,2.227-1.554,3.665a40.4,40.4,0,0,0,1.044,5.8l-1.6,4.087.464.186.464-.51v.766a5.763,5.763,0,0,0,1.926.951,6.205,6.205,0,0,0,3.178-.07l.534-3.391v3.345l.626-.418.046-5.572s.51-2.993.51-3.828a12.437,12.437,0,0,0-2.042-4.222,10.31,10.31,0,0,0-1.972-1.624C771.57,467.01,771.036,467.266,771.036,467.266Z" transform="translate(-768.074 -467.083)" fill="#bf1e2d"/>
    <path id="Path_6681" data-name="Path 6681" d="M771.871,482.836a4.276,4.276,0,0,1-1.339-.194,5.765,5.765,0,0,1-1.948-.964.061.061,0,0,1-.02-.046v-.606l-.356.392a.062.062,0,0,1-.069.016l-.464-.186a.062.062,0,0,1-.035-.08l1.594-4.069a39.08,39.08,0,0,1-1.041-5.8,8.376,8.376,0,0,1,1.468-3.544c.047-.074.08-.125.094-.151a6.562,6.562,0,0,1,.8-.828.062.062,0,0,1,.015-.01c.023-.011.571-.269.9-.017.063.049.159.115.281.2a8.326,8.326,0,0,1,1.7,1.435c.629.769,2.055,3.409,2.055,4.262,0,.831-.49,3.716-.511,3.838l-.046,5.562a.062.062,0,0,1-.027.051l-.626.418a.062.062,0,0,1-.1-.051v-2.554l-.411,2.61a.063.063,0,0,1-.043.05A7.267,7.267,0,0,1,771.871,482.836Zm-3.183-1.233a5.542,5.542,0,0,0,4.987.861l.528-3.352a.06.06,0,0,1,.066-.052.062.062,0,0,1,.057.062v3.229l.5-.335.046-5.539c.006-.04.51-3.007.51-3.827a12.592,12.592,0,0,0-2.027-4.183,8.234,8.234,0,0,0-1.675-1.412c-.123-.085-.221-.152-.286-.2-.25-.192-.7,0-.763.027a6.175,6.175,0,0,0-.769.79c-.015.026-.049.08-.1.157a8.282,8.282,0,0,0-1.448,3.479,40.565,40.565,0,0,0,1.042,5.784.061.061,0,0,1,0,.037l-1.579,4.03.367.147.435-.479a.062.062,0,0,1,.107.042Z" transform="translate(-767.636 -466.644)" fill="#bf1e2d"/>
    <g id="Group_1310" data-name="Group 1310" transform="translate(0.062 0.062)" clip-path="url(#clip-path-3)">
      <g id="Group_1309" data-name="Group 1309" transform="translate(0 0)">
        <g id="Group_1305" data-name="Group 1305" opacity="0.17">
          <path id="Path_6682" data-name="Path 6682" d="M771.036,467.266a6.705,6.705,0,0,0-.789.812c-.116.209-1.531,2.227-1.554,3.665a40.4,40.4,0,0,0,1.044,5.8l-1.6,4.087.464.186.464-.51v.766a5.763,5.763,0,0,0,1.926.951,6.205,6.205,0,0,0,3.178-.07l.534-3.391v3.345l.626-.418.046-5.572s.51-2.993.51-3.828a12.437,12.437,0,0,0-2.042-4.222,10.31,10.31,0,0,0-1.972-1.624C771.57,467.01,771.036,467.266,771.036,467.266Z" transform="translate(-768.136 -467.145)" fill="#bf1e2d"/>
        </g>
        <g id="Group_1306" data-name="Group 1306" transform="translate(0.857 4.999)">
          <path id="Path_6683" data-name="Path 6683" d="M776.534,508.523a.061.061,0,0,1-.022,0,8.265,8.265,0,0,1-1.418-.814.062.062,0,1,1,.072-.1,8.3,8.3,0,0,0,1.39.8.062.062,0,0,1-.022.12Z" transform="translate(-775.068 -507.593)" fill="#bf1e2d"/>
        </g>
        <g id="Group_1307" data-name="Group 1307" transform="translate(1.102 5.631)">
          <path id="Path_6684" data-name="Path 6684" d="M778.556,513.071a8.008,8.008,0,0,1-1.454-.248.062.062,0,1,1,.031-.12,8.048,8.048,0,0,0,1.423.244.062.062,0,1,1,0,.124Z" transform="translate(-777.055 -512.702)" fill="#bf1e2d"/>
        </g>
        <g id="Group_1308" data-name="Group 1308" transform="translate(2.471 11.246)">
          <path id="Path_6685" data-name="Path 6685" d="M790.684,559.135h-.007l-2.457-.281a.062.062,0,0,1-.055-.068.063.063,0,0,1,.068-.054l2.406.275.138-.442-2.593-.307a.062.062,0,0,1,.015-.123l2.667.316a.062.062,0,0,1,.052.08l-.175.562A.062.062,0,0,1,790.684,559.135Z" transform="translate(-788.13 -558.134)" fill="#bf1e2d"/>
        </g>
      </g>
    </g>
  </g>
  <g id="Group_1312" data-name="Group 1312" transform="translate(2.761 5.408)">
    <path id="Path_6688" data-name="Path 6688" d="M790.473,469.247l2.575,2.784,1.508,2.877a17.2,17.2,0,0,0-.6-2.714c-.279-.58-1.531-2.041-1.67-2.366S790.473,469.247,790.473,469.247Z" transform="translate(-790.411 -469.185)" fill="#fff"/>
    <path id="Path_6689" data-name="Path 6689" d="M794.119,474.532a.061.061,0,0,1-.055-.033l-1.5-2.869-2.569-2.778a.062.062,0,0,1,.055-.1c.285.043,1.712.277,1.857.617a8.376,8.376,0,0,0,.663.928,11.716,11.716,0,0,1,1.006,1.436,16.838,16.838,0,0,1,.608,2.732.062.062,0,0,1-.042.068ZM790.2,468.9l2.453,2.652a.055.055,0,0,1,.009.013L794,474.1a13.421,13.421,0,0,0-.537-2.322,11.694,11.694,0,0,0-.993-1.414,8,8,0,0,1-.679-.954C791.7,469.219,790.835,469.008,790.2,468.9Z" transform="translate(-789.974 -468.747)" fill="#263238"/>
  </g>
  <g id="Group_1313" data-name="Group 1313" transform="translate(5.167 7.282)">
    <path id="Path_6690" data-name="Path 6690" d="M810.908,486.836l.713,1.36s-.221-1.455-.455-2.288l-.148-.426a7.536,7.536,0,0,0-.67-.992l-.4-.081.169.91.522.426Z" transform="translate(-809.882 -484.347)" fill="#0f75bc"/>
    <path id="Path_6691" data-name="Path 6691" d="M811.182,487.819a.062.062,0,0,1-.055-.033l-.713-1.36a.063.063,0,0,1-.005-.014l-.268-1.071-.507-.413a.061.061,0,0,1-.021-.037l-.169-.91a.062.062,0,0,1,.073-.072l.4.081a.061.061,0,0,1,.037.023,7.748,7.748,0,0,1,.676,1l.15.433c.233.832.456,2.285.458,2.3a.062.062,0,0,1-.061.071Zm-.655-1.444.533,1.017c-.082-.488-.236-1.344-.393-1.906l-.147-.422a7.6,7.6,0,0,0-.646-.956l-.291-.058.148.8.5.412a.063.063,0,0,1,.021.033Z" transform="translate(-809.444 -483.908)" fill="none"/>
  </g>
  <g id="Group_1314" data-name="Group 1314" transform="translate(5.167 6.453)">
    <path id="Path_6692" data-name="Path 6692" d="M810.22,477.7l.133.156.42.49.244,1.257-1.073-1.072A3.393,3.393,0,0,1,810.22,477.7Z" transform="translate(-809.882 -477.636)" fill="#fff"/>
    <path id="Path_6693" data-name="Path 6693" d="M810.579,479.223a.062.062,0,0,1-.044-.018l-1.074-1.073a.062.062,0,0,1-.017-.057,3.356,3.356,0,0,1,.288-.853.062.062,0,0,1,.047-.025.065.065,0,0,1,.049.022l.553.645a.061.061,0,0,1,.014.028l.244,1.257a.062.062,0,0,1-.032.066A.06.06,0,0,1,810.579,479.223Zm-1.006-1.154.907.906-.2-1.042-.486-.568A3.934,3.934,0,0,0,809.573,478.069Z" transform="translate(-809.443 -477.198)" fill="#fff"/>
  </g>
  <g id="Group_1326" data-name="Group 1326" transform="translate(2.525 0)">
    <g id="Group_1321" data-name="Group 1321" transform="translate(0)">
      <g id="Group_1320" data-name="Group 1320">
        <path id="Path_6694" data-name="Path 6694" d="M792.7,426.764a1.841,1.841,0,0,1,.634.85,4.813,4.813,0,0,1-.116,1.044c.023.162.441.534.418.719s-.371.255-.371.255-.379,1.377-.472,1.609-.557.162-.9.116l-.627,1.856-2.065-2.436.325-.974a4.5,4.5,0,0,1-.951-2.2c-.07-1.137.835-1.926,2.134-2.088a3.1,3.1,0,0,1,2.529.719C793.372,426.485,792.7,426.764,792.7,426.764Z" transform="translate(-788.504 -425.423)" fill="#eebeb9"/>
        <path id="Path_6695" data-name="Path 6695" d="M790.823,432.841a.062.062,0,0,1-.047-.022l-2.065-2.436a.062.062,0,0,1-.011-.059l.314-.942a4.461,4.461,0,0,1-.943-2.213c-.069-1.133.789-1.978,2.188-2.153a3.156,3.156,0,0,1,2.591.751.214.214,0,0,1,.013.178c-.062.177-.336.329-.485.4a1.692,1.692,0,0,1,.579.825,2.036,2.036,0,0,1-.071.774,1.07,1.07,0,0,0-.044.271,1,1,0,0,0,.176.272c.133.172.258.334.242.463-.024.189-.281.273-.383.3-.061.222-.378,1.366-.464,1.58-.106.265-.553.21-.92.161l-.61,1.808a.062.062,0,0,1-.047.041Zm-2-2.511,1.972,2.326.591-1.752a.059.059,0,0,1,.067-.041l.03,0c.311.042.736.1.809-.082.09-.226.466-1.588.469-1.6a.062.062,0,0,1,.047-.044c.079-.016.308-.087.322-.2.01-.079-.121-.248-.217-.372a.922.922,0,0,1-.2-.33,1.028,1.028,0,0,1,.046-.317,1.907,1.907,0,0,0,.07-.726c-.065-.388-.605-.807-.611-.811a.062.062,0,0,1,.014-.106c.123-.051.454-.217.508-.369a.091.091,0,0,0,0-.078,3.087,3.087,0,0,0-2.467-.688c-1.329.166-2.145.96-2.08,2.023a4.47,4.47,0,0,0,.937,2.168.062.062,0,0,1,.011.059Z" transform="translate(-788.066 -424.99)" fill="#eebeb9"/>
        <g id="Group_1319" data-name="Group 1319" transform="translate(0.062 0.061)" clip-path="url(#clip-path-4)">
          <g id="Group_1316" data-name="Group 1316" transform="translate(7.248 1.872)">
            <g id="Group_1315" data-name="Group 1315">
              <path id="Path_6696" data-name="Path 6696" d="M851.342,441.914a1.839,1.839,0,0,1,.634.85,4.809,4.809,0,0,1-.116,1.044c.023.162.441.534.418.719s-.371.255-.371.255-.379,1.377-.472,1.609-.557.162-.9.116l-.626,1.856-2.065-2.436.325-.974a4.5,4.5,0,0,1-.951-2.2c-.07-1.137.835-1.926,2.134-2.088a3.1,3.1,0,0,1,2.529.719C852.014,441.636,851.342,441.914,851.342,441.914Z" transform="translate(-847.209 -440.635)" fill="#eebeb9"/>
            </g>
          </g>
          <g id="Group_1318" data-name="Group 1318" transform="translate(0 0.674)">
            <g id="Group_1317" data-name="Group 1317">
              <path id="Path_6697" data-name="Path 6697" d="M790.293,436.851c.349-.071.932-.191,1.459-.311l.136-.4a1.453,1.453,0,0,0,.829-.024c-.4-.163-1.375-.449-1.575-.816-.249-.456.622-1.783.622-2.447s-.829-1.41-.829-1.41a2.76,2.76,0,0,0-1.774-.5,1.741,1.741,0,0,0-.59,1.44,4.5,4.5,0,0,0,.951,2.2l-.325.974Z" transform="translate(-788.566 -430.939)" fill="#eebeb9"/>
            </g>
          </g>
        </g>
      </g>
    </g>
    <g id="Group_1322" data-name="Group 1322" transform="translate(0)">
      <path id="Path_6700" data-name="Path 6700" d="M792.7,426.764s.673-.278.534-.534a3.1,3.1,0,0,0-2.529-.719c-1.3.162-2.2.951-2.134,2.088a4.5,4.5,0,0,0,.951,2.2l-.049.148a1.024,1.024,0,0,0,.977-.148.478.478,0,0,1-.557-.093c-.278-.255-.3-1.067.046-1.137s.58.07.58.325.07.093.255.07.023-.58.139-.673a1.834,1.834,0,0,0,.487-.441c.209-.278-.394-.51-.464-.766S792.7,426.764,792.7,426.764Z" transform="translate(-788.504 -425.423)" fill="#020202"/>
      <path id="Path_6701" data-name="Path 6701" d="M789.37,429.656a.819.819,0,0,1-.363-.083.062.062,0,0,1-.032-.075l.039-.116a4.462,4.462,0,0,1-.944-2.213c-.069-1.133.789-1.978,2.188-2.153a3.157,3.157,0,0,1,2.591.751.214.214,0,0,1,.013.178c-.082.232-.527.421-.577.442a.066.066,0,0,1-.021,0,4.748,4.748,0,0,0-1.706.252.785.785,0,0,0,.229.259c.172.151.386.34.225.555a1.557,1.557,0,0,1-.411.389c-.031.021-.06.041-.087.063s-.024.177-.021.261c0,.19.01.405-.149.425a.418.418,0,0,0-.13.044c-.046.022-.093.044-.139.015s-.056-.09-.056-.19a.251.251,0,0,0-.09-.2.5.5,0,0,0-.416-.06c-.1.021-.155.131-.179.219a.939.939,0,0,0,.163.812.418.418,0,0,0,.484.085.062.062,0,0,1,.069.1A1.232,1.232,0,0,1,789.37,429.656Zm-.259-.172a.81.81,0,0,0,.579-.014.59.59,0,0,1-.277-.148,1.052,1.052,0,0,1-.2-.936.385.385,0,0,1,.274-.307.62.62,0,0,1,.518.085.374.374,0,0,1,.135.3.66.66,0,0,0,0,.07l.014-.007a.53.53,0,0,1,.169-.055c.048-.006.043-.2.04-.3,0-.161-.008-.3.068-.36.029-.023.06-.045.094-.068a1.442,1.442,0,0,0,.382-.362c.086-.115-.021-.223-.208-.388a.8.8,0,0,1-.266-.324.117.117,0,0,1,.021-.1c.165-.225,1.493-.289,1.789-.3.13-.055.445-.217.5-.365a.091.091,0,0,0,0-.078,3.087,3.087,0,0,0-2.467-.688c-1.329.166-2.145.96-2.08,2.023a4.47,4.47,0,0,0,.937,2.168.062.062,0,0,1,.011.059Zm3.151-3.153h0Z" transform="translate(-788.066 -424.99)" fill="#020202"/>
    </g>
    <g id="Group_1323" data-name="Group 1323" transform="translate(4.023 4.524)">
      <path id="Path_6702" data-name="Path 6702" d="M821.02,461.819a.648.648,0,0,1-.383-.118.062.062,0,0,1,.077-.1h0a.542.542,0,0,0,.384.086.062.062,0,0,1,.015.123A.763.763,0,0,1,821.02,461.819Z" transform="translate(-820.614 -461.591)" fill="#263238"/>
    </g>
    <g id="Group_1324" data-name="Group 1324" transform="translate(4.094 3.139)">
      <path id="Path_6703" data-name="Path 6703" d="M821.641,450.654h-.389a.062.062,0,0,1-.019-.12l.43-.143a.062.062,0,0,1,.039.117l-.069.023h.008a.062.062,0,0,1,0,.124Z" transform="translate(-821.19 -450.387)" fill="#263238"/>
    </g>
    <g id="Group_1325" data-name="Group 1325" transform="translate(4.073 2.533)">
      <path id="Path_6704" data-name="Path 6704" d="M821.086,445.848l-.016,0a.063.063,0,0,1-.044-.077c.006-.025.043-.117.254-.243s.4.053.472.161a.062.062,0,0,1-.1.07c-.006-.009-.154-.217-.307-.126-.171.1-.2.17-.2.17A.06.06,0,0,1,821.086,445.848Z" transform="translate(-821.024 -445.485)" fill="#263238"/>
    </g>
  </g>
  <g id="Group_1327" data-name="Group 1327" transform="translate(2.668 4.851)">
    <path id="Path_6705" data-name="Path 6705" d="M790.117,464.742l2.6,2.552-.232,1.09-2.761-2.97Z" transform="translate(-789.661 -464.68)" fill="#fff"/>
    <path id="Path_6706" data-name="Path 6706" d="M792.045,468.007a.062.062,0,0,1-.045-.02l-2.761-2.969a.062.062,0,0,1-.008-.073l.394-.673a.062.062,0,0,1,.045-.03.061.061,0,0,1,.051.017l2.6,2.552a.062.062,0,0,1,.017.057l-.232,1.09a.062.062,0,0,1-.044.047Zm-2.684-3.04,2.648,2.849.2-.941-2.518-2.473Z" transform="translate(-789.223 -464.241)" fill="#fff"/>
  </g>
  <g id="Group_1328" data-name="Group 1328" transform="translate(10.492 14.113)">
    <path id="Path_6707" data-name="Path 6707" d="M855.576,540.164s-.914-.544-1.063-.494-1.582,1.087-1.483,1.335.865.569,1.31.742a2.585,2.585,0,0,0,1.359-.2Z" transform="translate(-852.964 -539.606)" fill="#eebeb9"/>
    <path id="Path_6708" data-name="Path 6708" d="M854.2,541.426a.884.884,0,0,1-.317-.05c-.824-.32-1.264-.574-1.345-.776a.182.182,0,0,1,.015-.145,5.552,5.552,0,0,1,1.506-1.271c.159-.051.832.332,1.114.5a.062.062,0,0,1,.03.048l.124,1.384a.061.061,0,0,1-.038.063A3.5,3.5,0,0,1,854.2,541.426ZM854.1,539.3h-.01a5.884,5.884,0,0,0-1.432,1.206.088.088,0,0,0-.012.047c.037.093.253.309,1.275.707a2.375,2.375,0,0,0,1.271-.181l-.117-1.306A4.334,4.334,0,0,0,854.1,539.3Z" transform="translate(-852.526 -539.179)" fill="#263238"/>
  </g>
  <g id="Group_1331" data-name="Group 1331" transform="translate(10.3 14.078)">
    <path id="Path_6709" data-name="Path 6709" d="M851.523,539.8a6.035,6.035,0,0,1,.87-.423,4.719,4.719,0,0,1,.8.611l-.282.423s.893.447.8.611a1.256,1.256,0,0,1-.823.47c-.376.047-1.434-.635-1.434-.635Z" transform="translate(-851.394 -539.314)" fill="#eebeb9"/>
    <path id="Path_6710" data-name="Path 6710" d="M852.433,541.133a4.449,4.449,0,0,1-1.428-.646.058.058,0,0,1-.027-.053l.071-1.058a.059.059,0,0,1,.03-.047,4.952,4.952,0,0,1,.9-.431,3.576,3.576,0,0,1,.838.626.059.059,0,0,1,.01.076l-.245.368c.2.1.718.386.773.568a.118.118,0,0,1-.009.095,1.314,1.314,0,0,1-.866.5Zm-1.27-1.718-.066.991a3.752,3.752,0,0,0,1.365.607,1.2,1.2,0,0,0,.779-.441,2.114,2.114,0,0,0-.774-.529.059.059,0,0,1-.023-.085l.254-.381a4.275,4.275,0,0,0-.724-.562" transform="translate(-850.977 -538.898)" fill="#263238"/>
    <g id="Group_1330" data-name="Group 1330" transform="translate(0.059 0.059)" clip-path="url(#clip-path-5)">
      <g id="Group_1329" data-name="Group 1329" transform="translate(0.063 -0.059)">
        <path id="Path_6711" data-name="Path 6711" d="M852.036,539.321a6.033,6.033,0,0,1,.87-.423,4.719,4.719,0,0,1,.8.611l-.282.423s.893.447.8.611a1.257,1.257,0,0,1-.823.47c-.376.047-1.434-.635-1.434-.635Z" transform="translate(-851.965 -538.898)" fill="#eebeb9"/>
      </g>
    </g>
  </g>
  <g id="Group_1332" data-name="Group 1332" transform="translate(9.706 14.213)">
    <path id="Path_6714" data-name="Path 6714" d="M846.789,540.491l.692.124-.222,1.186-.593-.2Z" transform="translate(-846.604 -540.43)" fill="#eebeb9"/>
    <path id="Path_6715" data-name="Path 6715" d="M846.821,541.425a.067.067,0,0,1-.019,0l-.593-.2a.062.062,0,0,1-.042-.065l.123-1.112a.062.062,0,0,1,.072-.054l.692.124a.062.062,0,0,1,.05.072l-.223,1.186a.061.061,0,0,1-.061.05Zm-.526-.3.478.16.2-1.056-.566-.1Z" transform="translate(-846.166 -539.992)" fill="#263238"/>
  </g>
  <g id="Group_1335" data-name="Group 1335" transform="translate(1.054 7.318)">
    <path id="Path_6716" data-name="Path 6716" d="M777.4,484.7a8.389,8.389,0,0,0-.741,1.928c-.074.643,2.645,5.759,2.842,5.932s5.981.346,5.981.346l.247-1.261-4.943-1.409-1.681-5.166" transform="translate(-776.599 -484.635)" fill="#c71d2d"/>
    <path id="Path_6717" data-name="Path 6717" d="M785.05,492.526h0c-.97-.029-5.816-.183-6.02-.361-.237-.207-2.94-5.319-2.863-5.985a8.279,8.279,0,0,1,.748-1.949.062.062,0,1,1,.109.057,8.385,8.385,0,0,0-.735,1.907c-.067.584,2.6,5.677,2.822,5.878.2.117,3.611.26,5.89.329l.226-1.153-4.888-1.393a.062.062,0,0,1-.042-.04l-1.681-5.166a.062.062,0,0,1,.117-.038l1.671,5.134,4.911,1.4a.062.062,0,0,1,.044.071l-.247,1.26A.062.062,0,0,1,785.05,492.526Z" transform="translate(-776.163 -484.196)" fill="#bf1e2d"/>
    <g id="Group_1334" data-name="Group 1334" transform="translate(0.062 0.062)" clip-path="url(#clip-path-6)">
      <g id="Group_1333" data-name="Group 1333" transform="translate(0 0)" opacity="0.17">
        <path id="Path_6718" data-name="Path 6718" d="M777.4,484.7a8.389,8.389,0,0,0-.741,1.928c-.074.643,2.645,5.759,2.842,5.932s5.981.346,5.981.346l.247-1.261-4.943-1.409-1.681-5.166" transform="translate(-776.661 -484.697)" fill="#bf1e2d"/>
      </g>
    </g>
  </g>
  <g id="Group_1336" data-name="Group 1336" transform="translate(11.075 14.12)">
    <path id="Path_6721" data-name="Path 6721" d="M858.639,539.852s-.346-.3-.47.049-.89,1.186-.544,1.211.989-.692.989-.692" transform="translate(-857.501 -539.672)" fill="#eebeb9"/>
    <path id="Path_6722" data-name="Path 6722" d="M857.412,540.736h-.021a.145.145,0,0,1-.132-.078c-.064-.132.084-.365.333-.733a2.919,2.919,0,0,0,.289-.483.285.285,0,0,1,.19-.2.482.482,0,0,1,.377.125.062.062,0,1,1-.08.094.37.37,0,0,0-.266-.1c-.046.012-.081.052-.106.122a2.905,2.905,0,0,1-.3.51c-.135.2-.36.534-.324.609,0,0,.014.008.029.009.253.02.765-.479.938-.672a.062.062,0,0,1,.092.083C858.363,540.1,857.779,540.736,857.412,540.736Z" transform="translate(-857.243 -539.233)" fill="#263238"/>
  </g>
  <g id="Group_1337" data-name="Group 1337" transform="translate(10.626 15.507)">
    <path id="Path_6723" data-name="Path 6723" d="M854.133,551.071s-.089.417.124.593c.149.123.234-.223.2-.47S854.207,550.873,854.133,551.071Z" transform="translate(-854.052 -550.894)" fill="#eebeb9"/>
    <path id="Path_6724" data-name="Path 6724" d="M853.878,551.314a.158.158,0,0,1-.1-.04c-.239-.2-.149-.635-.145-.654l0-.009a.207.207,0,0,1,.21-.154.308.308,0,0,1,.231.291c.027.183-.005.476-.135.549A.128.128,0,0,1,853.878,551.314Zm-.124-.664c-.008.043-.067.387.1.528.008.007.018.013.024.01a.577.577,0,0,0,.073-.423c-.017-.115-.074-.181-.121-.186S853.764,550.625,853.753,550.65Z" transform="translate(-853.613 -550.456)" fill="#263238"/>
  </g>
  <g id="Group_1338" data-name="Group 1338" transform="translate(10.972 15.606)">
    <path id="Path_6725" data-name="Path 6725" d="M856.933,551.871s-.09.417.124.593c.149.123.234-.223.2-.47S857.007,551.673,856.933,551.871Z" transform="translate(-856.852 -551.694)" fill="#eebeb9"/>
    <path id="Path_6726" data-name="Path 6726" d="M856.678,552.115a.158.158,0,0,1-.1-.04c-.239-.2-.149-.635-.145-.654l0-.009a.208.208,0,0,1,.21-.155c.114.012.207.129.23.291.027.183-.005.476-.135.549A.127.127,0,0,1,856.678,552.115Zm-.125-.663c-.008.043-.067.387.1.528.008.006.018.014.023.01a.577.577,0,0,0,.074-.424c-.017-.115-.074-.181-.121-.186S856.563,551.426,856.553,551.452Z" transform="translate(-856.413 -551.257)" fill="#263238"/>
  </g>
  <g id="Group_1339" data-name="Group 1339" transform="translate(11.318 15.754)">
    <path id="Path_6727" data-name="Path 6727" d="M859.732,553.071s-.089.417.124.593c.149.123.234-.223.2-.47S859.806,552.873,859.732,553.071Z" transform="translate(-859.651 -552.894)" fill="#eebeb9"/>
    <path id="Path_6728" data-name="Path 6728" d="M859.477,553.313a.158.158,0,0,1-.1-.04c-.239-.2-.149-.635-.145-.654l0-.009a.207.207,0,0,1,.21-.154.308.308,0,0,1,.23.291c.027.183-.005.476-.135.549A.127.127,0,0,1,859.477,553.313Zm-.124-.663c-.008.043-.067.387.1.528.008.007.018.013.023.01a.578.578,0,0,0,.074-.424c-.017-.115-.074-.181-.121-.186S859.363,552.624,859.353,552.65Z" transform="translate(-859.213 -552.456)" fill="#263238"/>
  </g>
  <g id="Group_1340" data-name="Group 1340" transform="translate(11.662 15.993)">
    <path id="Path_6729" data-name="Path 6729" d="M862.515,554.968s-.082.281.114.4c.137.083.215-.15.182-.317S862.583,554.834,862.515,554.968Z" transform="translate(-862.436 -554.828)" fill="#eebeb9"/>
    <path id="Path_6730" data-name="Path 6730" d="M862.244,555.008a.17.17,0,0,1-.087-.026c-.234-.142-.145-.457-.141-.47a.057.057,0,0,1,0-.011.2.2,0,0,1,.206-.11.25.25,0,0,1,.205.209.408.408,0,0,1-.1.381A.144.144,0,0,1,862.244,555.008Zm-.111-.456c-.009.037-.051.24.088.324.022.013.031.008.036,0a.3.3,0,0,0,.053-.255.128.128,0,0,0-.1-.111A.071.071,0,0,0,862.133,554.551Z" transform="translate(-861.996 -554.389)" fill="#263238"/>
  </g>
  <g id="Group_1341" data-name="Group 1341" transform="translate(13.042 14.584)">
    <path id="Path_6731" data-name="Path 6731" d="M873.3,544.721a.062.062,0,0,1-.036-.012.062.062,0,0,1-.025-.047l-.074-1.582a.062.062,0,0,1,.059-.065l.494-.025a.059.059,0,0,1,.065.057l.124,1.458a.062.062,0,0,1-.045.065l-.544.148Zm-.01-1.585.068,1.443.42-.114-.114-1.347Z" transform="translate(-873.163 -542.991)" fill="#263238"/>
  </g>
  <g id="Group_1342" data-name="Group 1342" transform="translate(13.413 13.447)">
    <path id="Path_6732" data-name="Path 6732" d="M876.662,535.305l.247,1.878,4.128-.445.1-2.447Z" transform="translate(-876.601 -534.23)" fill="#0e0e0e"/>
    <path id="Path_6733" data-name="Path 6733" d="M876.471,536.808a.062.062,0,0,1-.061-.054l-.247-1.878a.062.062,0,0,1,.048-.068l4.474-1.013a.062.062,0,0,1,.076.063l-.1,2.447a.062.062,0,0,1-.055.059l-4.128.445Zm-.178-1.892.232,1.763,4.015-.433.093-2.313Z" transform="translate(-876.162 -533.792)" fill="#0e0e0e"/>
  </g>
  <g id="Group_1343" data-name="Group 1343" transform="translate(4.245 21.949)">
    <path id="Path_6734" data-name="Path 6734" d="M802.046,615.511h0a.062.062,0,0,1-.06-.063,14.581,14.581,0,0,1,.57-2.878,14.737,14.737,0,0,0,.612-3.227c0-1.679.742-6.656.749-6.706a.062.062,0,0,1,.122.018c-.008.05-.748,5.018-.748,6.688a14.8,14.8,0,0,1-.616,3.258,14.5,14.5,0,0,0-.566,2.85A.062.062,0,0,1,802.046,615.511Z" transform="translate(-801.984 -602.583)" fill="#fff"/>
  </g>
  <g id="Group_1346" data-name="Group 1346" transform="translate(1.487 36.723)">
    <g id="Group_1344" data-name="Group 1344" transform="translate(0 0)">
      <path id="Path_6735" data-name="Path 6735" d="M780.447,724.547a21.415,21.415,0,0,0,5-.079c.394-.236.2-.552.039-.552s-2.127-1.3-2.127-1.3a8.348,8.348,0,0,1-1.655,1.024,7.032,7.032,0,0,1-1.536.236v.236A.966.966,0,0,0,780.447,724.547Z" transform="translate(-780.109 -722.555)" fill="#414141"/>
      <path id="Path_6736" data-name="Path 6736" d="M781.9,724.282a7.8,7.8,0,0,1-1.928-.125,1.022,1.022,0,0,1-.3-.465.064.064,0,0,1,0-.017v-.236a.062.062,0,0,1,.059-.062,7.009,7.009,0,0,0,1.519-.233,8.337,8.337,0,0,0,1.636-1.014.062.062,0,0,1,.072,0,23.578,23.578,0,0,0,2.1,1.29h0a.274.274,0,0,1,.238.21c.022.079.041.281-.249.456A15.671,15.671,0,0,1,781.9,724.282Zm-1.852-.223a23.42,23.42,0,0,0,4.934-.083c.153-.092.224-.208.194-.317a.155.155,0,0,0-.122-.12,19.075,19.075,0,0,1-2.125-1.286,7.9,7.9,0,0,1-1.638,1.007,6.718,6.718,0,0,1-1.494.236v.168A.9.9,0,0,0,780.045,724.059Z" transform="translate(-779.67 -722.116)" fill="#414141"/>
    </g>
    <g id="Group_1345" data-name="Group 1345" transform="translate(0.033 1.47)">
      <path id="Path_6737" data-name="Path 6737" d="M785.681,734.893c.208-.125.251-.271.222-.381a9.771,9.771,0,0,1-1.758.185c-1.19.032-3.062-.041-3.71-.068a.887.887,0,0,0,.243.344A21.4,21.4,0,0,0,785.681,734.893Z" transform="translate(-780.373 -734.449)" fill="#414141"/>
      <path id="Path_6738" data-name="Path 6738" d="M782.13,734.707a7.8,7.8,0,0,1-1.928-.125.941.941,0,0,1-.261-.369.062.062,0,0,1,.006-.059.066.066,0,0,1,.053-.026c.724.031,2.534.1,3.706.069a9.7,9.7,0,0,0,1.747-.183.062.062,0,0,1,.073.045c.02.078.036.278-.25.45h0A15.672,15.672,0,0,1,782.13,734.707Zm-2.033-.452a.74.74,0,0,0,.182.23,23.476,23.476,0,0,0,4.933-.084h0a.352.352,0,0,0,.2-.254,10.042,10.042,0,0,1-1.7.172C782.585,734.35,780.879,734.288,780.1,734.256Zm5.147.2h0Z" transform="translate(-779.936 -734.012)" fill="#414141"/>
    </g>
  </g>
  <g id="Group_1347" data-name="Group 1347" transform="translate(0.895 34.753)">
    <path id="Path_6739" data-name="Path 6739" d="M775.853,710.177l.115-.267.157-3.23s-.709,2.521-.748,3.112C775.348,710.221,775.673,710.213,775.853,710.177Z" transform="translate(-775.313 -706.617)"/>
    <path id="Path_6740" data-name="Path 6740" d="M775.269,709.815a.405.405,0,0,1-.273-.089.439.439,0,0,1-.12-.378c.039-.591.722-3.022.751-3.125a.062.062,0,0,1,.121.02l-.158,3.23a.064.064,0,0,1,0,.021l-.115.267a.062.062,0,0,1-.045.036A.814.814,0,0,1,775.269,709.815Zm.145-.077h0Zm.183-2.941a23.975,23.975,0,0,0-.6,2.56.325.325,0,0,0,.078.277.371.371,0,0,0,.293.049l.1-.227Z" transform="translate(-774.875 -706.178)"/>
  </g>
  <g id="Group_1348" data-name="Group 1348" transform="translate(18.214 20.964)">
    <path id="Path_6741" data-name="Path 6741" d="M915.674,595.115a54.772,54.772,0,0,0,0,8.234c.394,2.364,1.379,6.461,1.536,6.973a2.722,2.722,0,0,1,.118.946l2.206.315s-.67-7.761-.67-8.667.749-7.682.749-7.682Z" transform="translate(-915.439 -595.053)" fill="#263238"/>
    <path id="Path_6742" data-name="Path 6742" d="M919.105,611.206H919.1l-2.206-.315a.062.062,0,0,1-.053-.067,2.684,2.684,0,0,0-.116-.922c-.161-.522-1.142-4.6-1.538-6.981a55.122,55.122,0,0,1,0-8.248.06.06,0,0,1,.063-.058l3.94.118a.063.063,0,0,1,.045.021.061.061,0,0,1,.015.047c-.007.068-.748,6.783-.748,7.676s.663,8.584.669,8.662a.062.062,0,0,1-.062.067Zm-2.141-.43,2.073.3c-.074-.859-.663-7.734-.663-8.595s.659-6.877.742-7.622l-3.813-.114a53.574,53.574,0,0,0,0,8.16c.4,2.374,1.375,6.445,1.535,6.965A2.845,2.845,0,0,1,916.964,610.776Z" transform="translate(-915.009 -594.615)" fill="#263238"/>
  </g>
  <g id="Group_1349" data-name="Group 1349" transform="translate(17.312 37.077)">
    <path id="Path_6743" data-name="Path 6743" d="M910.94,725.524s-2.4,1.024-2.679,1.221.591.473,1.655.473,2.127-.118,2.127-.118l.433-.236.039.276h1.142a4.54,4.54,0,0,0,.118-1.182,4.189,4.189,0,0,0-.2-.473Z" transform="translate(-908.148 -725.423)" fill="#2d1200"/>
    <path id="Path_6744" data-name="Path 6744" d="M909.477,726.843c-.787,0-1.682-.167-1.762-.416a.145.145,0,0,1,.071-.169c.278-.2,2.592-1.186,2.691-1.228a.062.062,0,0,1,.023,0l2.64-.039a.065.065,0,0,1,.056.034,4.176,4.176,0,0,1,.2.481,4.275,4.275,0,0,1-.116,1.214.062.062,0,0,1-.06.049h-1.142a.062.062,0,0,1-.061-.053l-.027-.188-.355.194a.06.06,0,0,1-.023.007C911.6,726.726,910.532,726.843,909.477,726.843Zm1.037-1.694c-.178.076-2.4,1.026-2.656,1.21,0,0-.028.021-.025.031a2.769,2.769,0,0,0,1.644.33c.988,0,1.988-.1,2.109-.117l.423-.23a.062.062,0,0,1,.091.045l.032.223h1.038a3.976,3.976,0,0,0,.11-1.1,4.039,4.039,0,0,0-.177-.43Z" transform="translate(-907.709 -724.986)" fill="#2d1200"/>
  </g>
  <g id="Group_1352" data-name="Group 1352" transform="translate(18.034 20.374)">
    <g id="Group_1350" data-name="Group 1350" transform="translate(0 0)">
      <path id="Path_6745" data-name="Path 6745" d="M914.047,590.452a63.8,63.8,0,0,0,.67,7.643c.473,2.009,1.3,6.894,1.3,7.406a3.006,3.006,0,0,1-.118.867l-.158.512a1.578,1.578,0,0,0,.118.355,9.662,9.662,0,0,0,1.694.236,4.46,4.46,0,0,0,1.239-.186s.022-1.232.061-1.823-.158-4.373-.158-5.279-.236-1.418-.236-2.521-.2-4.058-.158-4.531.591-.985.709-1.576.236-1.221.236-1.221Z" transform="translate(-913.985 -590.272)" fill="#0e0e0e"/>
      <path id="Path_6746" data-name="Path 6746" d="M917.115,607.095a9.594,9.594,0,0,1-1.708-.238.062.062,0,0,1-.041-.033,1.639,1.639,0,0,1-.123-.37.061.061,0,0,1,0-.03l.158-.512a2.977,2.977,0,0,0,.115-.848c0-.492-.82-5.358-1.3-7.392a64.139,64.139,0,0,1-.672-7.655.062.062,0,0,1,.06-.064l5.2-.118a.063.063,0,0,1,.049.022.06.06,0,0,1,.014.051s-.118.631-.236,1.222a2.733,2.733,0,0,1-.388.846,1.881,1.881,0,0,0-.32.723c-.02.242.023,1.163.07,2.138.043.913.088,1.858.088,2.388a8.171,8.171,0,0,0,.126,1.381,6.9,6.9,0,0,1,.11,1.141c0,.389.036,1.309.075,2.282.052,1.308.105,2.661.083,3-.039.583-.061,1.808-.061,1.82a.062.062,0,0,1-.043.058A4.476,4.476,0,0,1,917.115,607.095Zm-1.651-.352a9.415,9.415,0,0,0,1.651.228,4.471,4.471,0,0,0,1.178-.17c0-.227.025-1.259.06-1.781.022-.333-.031-1.683-.083-2.988-.039-.975-.075-1.9-.075-2.287a6.794,6.794,0,0,0-.109-1.122,8.281,8.281,0,0,1-.128-1.4c0-.527-.045-1.47-.088-2.382-.046-.979-.09-1.9-.069-2.154a1.955,1.955,0,0,1,.337-.776,2.642,2.642,0,0,0,.373-.806c.094-.469.187-.962.222-1.146l-5.061.115a62.1,62.1,0,0,0,.666,7.568c.48,2.04,1.3,6.925,1.3,7.421a3.045,3.045,0,0,1-.121.886l-.153.5A1.567,1.567,0,0,0,915.464,606.743Z" transform="translate(-913.547 -589.834)" fill="#0e0e0e"/>
    </g>
    <g id="Group_1351" data-name="Group 1351" transform="translate(0.472 6.043)">
      <path id="Path_6747" data-name="Path 6747" d="M918.926,647.974l-.017,0a.062.062,0,0,1-.042-.077,1.355,1.355,0,0,0-.116-.956c-.278-.486-1.339-7.83-1.384-8.143a.062.062,0,0,1,.122-.018c.38,2.638,1.156,7.726,1.369,8.1a1.457,1.457,0,0,1,.127,1.052A.062.062,0,0,1,918.926,647.974Z" transform="translate(-917.367 -638.726)" fill="#fff"/>
    </g>
  </g>
  <g id="Group_1353" data-name="Group 1353" transform="translate(16.929 15.842)">
    <path id="Path_6748" data-name="Path 6748" d="M905.267,553.869s-.148,1.507-.148,2.659c0,.642-.006,1.477-.012,2.091a1.076,1.076,0,0,0,.859,1.064,4.1,4.1,0,0,0,.787.1l-.926-5.732S905.415,553.337,905.267,553.869Z" transform="translate(-905.046 -553.609)" fill="#263238"/>
    <path id="Path_6749" data-name="Path 6749" d="M906.317,559.4a4.1,4.1,0,0,1-.8-.1,1.14,1.14,0,0,1-.909-1.125c.008-.879.011-1.582.011-2.09,0-1.142.147-2.65.148-2.665a.068.068,0,0,1,0-.01c.041-.148.109-.23.2-.242.209-.026.429.332.471.4a.06.06,0,0,1,.008.021l.926,5.732a.062.062,0,0,1-.061.072Zm-1.426-5.96c-.01.1-.147,1.546-.147,2.648,0,.509,0,1.212-.011,2.091a1.016,1.016,0,0,0,.81,1,4.215,4.215,0,0,0,.7.093l-.912-5.648c-.087-.145-.248-.348-.343-.334C904.951,553.3,904.916,553.353,904.891,553.443Z" transform="translate(-904.608 -553.172)" fill="#263238"/>
  </g>
  <g id="Group_1354" data-name="Group 1354" transform="translate(17.067 5.675)">
    <path id="Path_6750" data-name="Path 6750" d="M910.627,471.516a2.443,2.443,0,0,1,.611.453,4.6,4.6,0,0,1,.414.65,26.765,26.765,0,0,1,1.714,2.127c.039.2-.946,6.4-.946,6.4l1.123,5.87a9.142,9.142,0,0,1-3.191,1.064,13.845,13.845,0,0,1-3.209-.456.767.767,0,0,1-.585-.676c-.076-.825-.219-2.467-.3-4.03a45.594,45.594,0,0,1,.374-6.658,11.487,11.487,0,0,1,1.28-3.684A2.626,2.626,0,0,1,910.627,471.516Z" transform="translate(-906.172 -471.351)"/>
    <path id="Path_6751" data-name="Path 6751" d="M909.724,487.7a15.009,15.009,0,0,1-3.039-.461.829.829,0,0,1-.632-.73c-.077-.836-.22-2.473-.3-4.032a45.3,45.3,0,0,1,.375-6.671,11.531,11.531,0,0,1,1.29-3.708,2.683,2.683,0,0,1,2.792-1.087l.006,0a2.478,2.478,0,0,1,.629.468,4.548,4.548,0,0,1,.418.655,22.506,22.506,0,0,1,1.723,2.15c.04.2-.835,5.727-.943,6.413l1.121,5.859a.062.062,0,0,1-.031.066,9.073,9.073,0,0,1-3.219,1.071C909.851,487.7,909.788,487.7,909.724,487.7Zm-.1-16.671a2.869,2.869,0,0,0-2.109,1.137,11.387,11.387,0,0,0-1.271,3.659,46.055,46.055,0,0,0-.374,6.645c.083,1.557.226,3.191.3,4.027a.706.706,0,0,0,.538.622,13.688,13.688,0,0,0,3.192.454,8.941,8.941,0,0,0,3.125-1.035l-1.114-5.826a.064.064,0,0,1,0-.021c.391-2.465.966-6.2.946-6.382a24.551,24.551,0,0,0-1.7-2.1.061.061,0,0,1-.008-.012,4.529,4.529,0,0,0-.406-.639,2.365,2.365,0,0,0-.589-.436A1.446,1.446,0,0,0,909.627,471.029Z" transform="translate(-905.729 -470.904)"/>
  </g>
  <g id="Group_1357" data-name="Group 1357" transform="translate(17.776 5.677)">
    <path id="Path_6752" data-name="Path 6752" d="M916.672,472.619a4.6,4.6,0,0,0-.414-.65,2.443,2.443,0,0,0-.611-.453,2.516,2.516,0,0,0-2.411.708,20.515,20.515,0,0,0-1,2.759,12.2,12.2,0,0,0-.276,2.8s1.044-1.34,2.462-2.915a18.722,18.722,0,0,1,2.31-2.171Z" transform="translate(-911.901 -471.353)" fill="#0e0e0e"/>
    <path id="Path_6753" data-name="Path 6753" d="M911.527,477.407a.062.062,0,0,1-.062-.06,12.367,12.367,0,0,1,.278-2.814,20.643,20.643,0,0,1,1-2.769.059.059,0,0,1,.014-.02,2.573,2.573,0,0,1,2.477-.72,2.465,2.465,0,0,1,.635.471,4.552,4.552,0,0,1,.418.655l.06.069a.062.062,0,0,1-.009.089,18.733,18.733,0,0,0-2.3,2.164c-1.4,1.556-2.449,2.9-2.459,2.912A.062.062,0,0,1,911.527,477.407Zm1.324-5.582a20.413,20.413,0,0,0-.988,2.738,11.783,11.783,0,0,0-.275,2.606c.3-.383,1.213-1.51,2.356-2.78a18.994,18.994,0,0,1,2.267-2.138l-.022-.026a.068.068,0,0,1-.008-.012,4.539,4.539,0,0,0-.406-.639,2.4,2.4,0,0,0-.592-.438A2.445,2.445,0,0,0,912.851,471.826Z" transform="translate(-911.464 -470.919)" fill="#0e0e0e"/>
    <g id="Group_1356" data-name="Group 1356" transform="translate(0.062 0.061)" clip-path="url(#clip-path-7)">
      <g id="Group_1355" data-name="Group 1355" transform="translate(0 0)" opacity="0.17">
        <path id="Path_6754" data-name="Path 6754" d="M916.672,472.619a4.6,4.6,0,0,0-.414-.65,2.443,2.443,0,0,0-.611-.453,2.516,2.516,0,0,0-2.411.708,20.515,20.515,0,0,0-1,2.759,12.2,12.2,0,0,0-.276,2.8s1.044-1.34,2.462-2.915a18.722,18.722,0,0,1,2.31-2.171Z" transform="translate(-911.962 -471.414)" fill="#0e0e0e"/>
      </g>
    </g>
  </g>
  <g id="Group_1358" data-name="Group 1358" transform="translate(18.048 5.861)">
    <path id="Path_6757" data-name="Path 6757" d="M915.038,474.45s-.532,1.669-.694,2.142a4.944,4.944,0,0,0-.177,1.211s1.994-2.984,2.482-3.486,1.123-1.285,1.123-1.285l-.428-.118Z" transform="translate(-914.104 -472.851)" fill="#fff"/>
    <path id="Path_6758" data-name="Path 6758" d="M913.728,477.427a.06.06,0,0,1-.019,0,.062.062,0,0,1-.043-.06,4.936,4.936,0,0,1,.181-1.23c.16-.467.689-2.124.694-2.141a.061.061,0,0,1,.025-.033l2.3-1.536a.062.062,0,0,1,.051-.008l.429.118a.062.062,0,0,1,.032.1c-.006.008-.643.791-1.126,1.289s-2.455,3.448-2.475,3.478A.062.062,0,0,1,913.728,477.427Zm.924-3.376c-.062.194-.537,1.683-.688,2.123a4.194,4.194,0,0,0-.163.972c.446-.664,1.944-2.877,2.365-3.31.393-.405.889-1,1.059-1.208l-.31-.085Z" transform="translate(-913.666 -472.414)" fill="#263238"/>
  </g>
  <g id="Group_1359" data-name="Group 1359" transform="translate(18.772 6.792)">
    <path id="Path_6759" data-name="Path 6759" d="M920.319,480.444s-.236.694-.236.739-.059.709-.059.709l.842-1.138Z" transform="translate(-919.962 -480.382)" fill="#fff"/>
    <path id="Path_6760" data-name="Path 6760" d="M919.586,481.515a.061.061,0,0,1-.062-.067c.023-.255.059-.671.059-.7a7.884,7.884,0,0,1,.24-.759.062.062,0,0,1,.089-.034l.547.31a.062.062,0,0,1,.019.09l-.842,1.138A.062.062,0,0,1,919.586,481.515Zm.33-1.419c-.1.3-.2.613-.209.653s-.022.289-.04.491l.67-.905Z" transform="translate(-919.524 -479.944)" fill="#fff"/>
  </g>
  <g id="Group_1360" data-name="Group 1360" transform="translate(18.905 5.403)">
    <path id="Path_6761" data-name="Path 6761" d="M923.4,469.208l-2.3,1.876.354,1.034,2.364-2.408Z" transform="translate(-921.037 -469.146)" fill="#fff"/>
    <path id="Path_6762" data-name="Path 6762" d="M921.015,471.743l-.014,0a.062.062,0,0,1-.045-.04l-.355-1.034a.062.062,0,0,1,.02-.068l2.3-1.876a.062.062,0,0,1,.087.009l.414.5a.062.062,0,0,1,0,.083l-2.364,2.408A.062.062,0,0,1,921.015,471.743Zm-.282-1.075.308.9,2.255-2.3-.339-.412Z" transform="translate(-920.599 -468.709)" fill="#fff"/>
  </g>
  <g id="Group_1366" data-name="Group 1366" transform="translate(20.427 20.284)">
    <g id="Group_1361" data-name="Group 1361" transform="translate(0 0)">
      <path id="Path_6763" data-name="Path 6763" d="M933.9,589.612s-.328.814-.425,1.082a6.387,6.387,0,0,0-.036,1.422c.012.109.207.134.207.134a3.731,3.731,0,0,0,.134.863,1.363,1.363,0,0,0,.231.036s.134.425.3.389a.277.277,0,0,0,.194-.231.322.322,0,0,0,.292-.134,1.589,1.589,0,0,0,.17-.328s.292-.146.316-.255.1-.5.1-.5.085-.024.085-.28-.194-1.823-.194-1.823Z" transform="translate(-933.353 -589.55)" fill="#eebeb9"/>
      <path id="Path_6764" data-name="Path 6764" d="M933.852,593.164c-.171,0-.286-.276-.328-.4a1.121,1.121,0,0,1-.2-.036c-.038-.013-.109-.036-.172-.87-.073-.018-.2-.064-.21-.179a6.3,6.3,0,0,1,.04-1.45c.1-.265.423-1.076.426-1.084a.063.063,0,0,1,.074-.037l1.373.377a.062.062,0,0,1,.045.052c.008.064.2,1.574.2,1.831,0,.2-.051.283-.091.317-.017.09-.072.38-.093.474-.026.117-.235.238-.327.286a1.66,1.66,0,0,1-.169.319.374.374,0,0,1-.294.161.314.314,0,0,1-.23.229A.162.162,0,0,1,933.852,593.164Zm-.478-.544a1.458,1.458,0,0,0,.2.029.061.061,0,0,1,.054.043c.048.152.159.365.232.347.124-.027.145-.172.146-.178a.061.061,0,0,1,.069-.053.258.258,0,0,0,.233-.108,1.55,1.55,0,0,0,.163-.314.061.061,0,0,1,.031-.035c.125-.063.273-.166.283-.213.024-.107.1-.492.1-.5a.062.062,0,0,1,.043-.048h0a.376.376,0,0,0,.041-.22c0-.226-.158-1.526-.189-1.774l-1.28-.351c-.073.183-.322.8-.4,1.029a6.369,6.369,0,0,0-.033,1.394c0,.043.1.073.153.079a.062.062,0,0,1,.054.057A4.776,4.776,0,0,0,933.374,592.62Zm0,.009h0Z" transform="translate(-932.914 -589.113)" fill="#263238"/>
    </g>
    <g id="Group_1362" data-name="Group 1362" transform="translate(0.23 1.898)">
      <path id="Path_6765" data-name="Path 6765" d="M934.834,605.332h0a.061.061,0,0,1-.059-.065l.036-.739a.057.057,0,0,1,.065-.059.062.062,0,0,1,.059.065l-.036.739A.062.062,0,0,1,934.834,605.332Z" transform="translate(-934.772 -604.469)" fill="#263238"/>
    </g>
    <g id="Group_1363" data-name="Group 1363" transform="translate(0.594 2.442)">
      <path id="Path_6766" data-name="Path 6766" d="M937.784,610.092h0a.062.062,0,0,1-.057-.066l.079-1.094a.062.062,0,1,1,.123.009l-.079,1.094A.062.062,0,0,1,937.784,610.092Z" transform="translate(-937.722 -608.875)" fill="#263238"/>
    </g>
    <g id="Group_1364" data-name="Group 1364" transform="translate(1.092 2.51)">
      <path id="Path_6767" data-name="Path 6767" d="M941.815,610.729h0a.062.062,0,0,1-.059-.065l.057-1.184a.058.058,0,0,1,.065-.059.062.062,0,0,1,.059.065l-.057,1.184A.062.062,0,0,1,941.815,610.729Z" transform="translate(-941.753 -609.421)" fill="#263238"/>
    </g>
    <g id="Group_1365" data-name="Group 1365" transform="translate(1.554 2.409)">
      <path id="Path_6768" data-name="Path 6768" d="M945.552,609.549h-.005a.062.062,0,0,1-.056-.067l.071-.824a.064.064,0,0,1,.067-.056.062.062,0,0,1,.056.067l-.071.824A.062.062,0,0,1,945.552,609.549Z" transform="translate(-945.49 -608.601)" fill="#263238"/>
    </g>
  </g>
  <g id="Group_1370" data-name="Group 1370" transform="translate(20.831 8.476)">
    <g id="Group_1367" data-name="Group 1367" transform="translate(0)">
      <path id="Path_6769" data-name="Path 6769" d="M939.16,494.07l.886.532-.3,6.126-1.576,5.791-1.5-.394.473-4.57-.236-4.609a3.805,3.805,0,0,1,1.1-1.664" transform="translate(-936.616 -494.008)" fill="#0e0e0e"/>
      <path id="Path_6770" data-name="Path 6770" d="M937.737,506.143l-.016,0-1.5-.394a.062.062,0,0,1-.046-.066l.473-4.57-.237-4.6a.063.063,0,0,1,0-.021,3.823,3.823,0,0,1,1.124-1.7.062.062,0,0,1,.075.1,3.742,3.742,0,0,0-1.078,1.624l.236,4.6-.468,4.527,1.387.365,1.558-5.726.293-6.082-.855-.513a.062.062,0,1,1,.064-.106l.886.532a.062.062,0,0,1,.03.056l-.3,6.126a.053.053,0,0,1,0,.013L937.8,506.1A.062.062,0,0,1,937.737,506.143Z" transform="translate(-936.178 -493.57)" fill="#0e0e0e"/>
    </g>
    <g id="Group_1368" data-name="Group 1368" transform="translate(0.236 1.034)">
      <path id="Path_6771" data-name="Path 6771" d="M938.153,503.9h0a.062.062,0,0,1-.06-.063,6.531,6.531,0,0,1,.428-1.863.062.062,0,0,1,.115.045,6.535,6.535,0,0,0-.419,1.82A.062.062,0,0,1,938.153,503.9Z" transform="translate(-938.091 -501.937)" fill="#0e0e0e"/>
    </g>
    <g id="Group_1369" data-name="Group 1369" transform="translate(0.015 1.522)">
      <path id="Path_6772" data-name="Path 6772" d="M936.362,516.07h-.008A.062.062,0,0,1,936.3,516l.472-3.669c0-.032-.182-4.246-.182-4.75a5.081,5.081,0,0,1,.7-1.667.062.062,0,1,1,.105.065,5.121,5.121,0,0,0-.681,1.6c0,.5.18,4.713.182,4.756l-.473,3.679A.062.062,0,0,1,936.362,516.07Z" transform="translate(-936.3 -505.885)" fill="#0e0e0e"/>
    </g>
  </g>
  <g id="Group_1379" data-name="Group 1379" transform="translate(16.551 0.439)">
    <g id="Group_1373" data-name="Group 1373" transform="translate(0)">
      <path id="Path_6773" data-name="Path 6773" d="M903.031,430.255a8.955,8.955,0,0,0-.428,1.536c.044.192.089.487.089.487s-.739.916-.65,1.019a1.669,1.669,0,0,0,.5.222,9.869,9.869,0,0,0,.473,1.551c.133.133.96-.163.96-.163l.886,1.123,1.817-1.743-.222-.916a7.612,7.612,0,0,0,.945-2.482c-.015-.8-1.655-1.861-2.822-1.847s-2.26.443-2.039.753A1.672,1.672,0,0,0,903.031,430.255Z" transform="translate(-901.975 -428.982)" fill="#eebeb9"/>
      <path id="Path_6774" data-name="Path 6774" d="M904.442,435.655h0a.062.062,0,0,1-.044-.023l-.859-1.088c-.279.1-.845.271-.983.133a8.129,8.129,0,0,1-.481-1.546,1.415,1.415,0,0,1-.5-.231c-.03-.035-.121-.141.632-1.077-.012-.077-.048-.3-.084-.456a7.279,7.279,0,0,1,.414-1.524,1.792,1.792,0,0,1-.463-.449.205.205,0,0,1-.015-.221c.164-.324,1.147-.618,2.1-.631h.026c1.222,0,2.843,1.078,2.858,1.908a7.324,7.324,0,0,1-.942,2.492l.216.892a.061.061,0,0,1-.017.059l-1.817,1.743A.062.062,0,0,1,904.442,435.655Zm-.886-1.246a.062.062,0,0,1,.049.024l.844,1.069,1.742-1.672-.213-.881a.062.062,0,0,1,.006-.045,7.6,7.6,0,0,0,.937-2.45c-.014-.76-1.591-1.786-2.735-1.786h-.024a3,3,0,0,0-1.994.563.08.08,0,0,0,.005.093,1.622,1.622,0,0,0,.467.44.062.062,0,0,1,.028.075,8.1,8.1,0,0,0-.427,1.5c.044.192.088.48.089.492a.062.062,0,0,1-.013.048,4.522,4.522,0,0,0-.643.948,1.667,1.667,0,0,0,.465.194.062.062,0,0,1,.043.045,8.917,8.917,0,0,0,.456,1.522,1.92,1.92,0,0,0,.9-.177A.062.062,0,0,1,903.556,434.409Zm-1.881-1.573h0Z" transform="translate(-901.554 -428.544)" fill="#eebeb9"/>
      <g id="Group_1372" data-name="Group 1372" transform="translate(0.059 0.062)" clip-path="url(#clip-path-8)">
        <g id="Group_1371" data-name="Group 1371" transform="translate(1.116 0.924)">
          <path id="Path_6775" data-name="Path 6775" d="M914.741,436.517a2.577,2.577,0,0,0-.653.185l-1.742.7s-.829.7-.746,1.244.829,1.285.663,1.824-1.2,1.12-1.2,1.12l.325.012c.249-.058.5-.149.5-.149l.135.172,1.679.061.889-.853-.222-.916a7.615,7.615,0,0,0,.945-2.482A1.424,1.424,0,0,0,914.741,436.517Z" transform="translate(-911.061 -436.517)" fill="#b8b8b8"/>
        </g>
      </g>
    </g>
    <g id="Group_1374" data-name="Group 1374" transform="translate(0.479)">
      <path id="Path_6778" data-name="Path 6778" d="M909.869,433.373a7.612,7.612,0,0,0,.945-2.482c-.015-.8-1.655-1.861-2.822-1.847s-2.26.443-2.039.753a1.672,1.672,0,0,0,.487.458s.724.34.724.428-.428.561-.281.768a2.729,2.729,0,0,0,.857.458s-.118.4.059.443.266-.133.384-.251.532-.281.591.222a1.521,1.521,0,0,1-.266,1.019c-.059.044.753.591,1.108.428.093-.043.2-.1.31-.156Z" transform="translate(-905.863 -428.982)"/>
      <path id="Path_6779" data-name="Path 6779" d="M909.022,433.425a1.715,1.715,0,0,1-1-.47.073.073,0,0,1,.015-.1,1.486,1.486,0,0,0,.242-.963c-.018-.154-.072-.248-.159-.278a.366.366,0,0,0-.327.093c-.025.025-.049.053-.073.081-.087.1-.2.229-.37.186a.171.171,0,0,1-.108-.083.605.605,0,0,1-.01-.381,2.375,2.375,0,0,1-.833-.461c-.126-.177.054-.458.185-.663a1.522,1.522,0,0,0,.08-.133,4,4,0,0,0-.684-.38,1.717,1.717,0,0,1-.512-.478.205.205,0,0,1-.015-.221c.164-.324,1.147-.618,2.1-.631h.026c1.222,0,2.843,1.078,2.858,1.908a7.324,7.324,0,0,1-.942,2.492l.053.219a.062.062,0,0,1-.031.069c-.126.067-.229.119-.313.158A.441.441,0,0,1,909.022,433.425Zm-.877-.511c.125.124.742.485,1.009.363.073-.034.16-.077.264-.132l-.047-.2a.062.062,0,0,1,.006-.045,7.6,7.6,0,0,0,.937-2.45c-.014-.76-1.591-1.786-2.735-1.786h-.024a3,3,0,0,0-1.994.563.08.08,0,0,0,.005.093,1.625,1.625,0,0,0,.467.44c.755.354.755.444.755.482s-.032.1-.1.207c-.1.156-.266.416-.188.525a2.535,2.535,0,0,0,.827.436.062.062,0,0,1,.039.076.589.589,0,0,0-.016.341.046.046,0,0,0,.031.025c.1.024.156-.04.246-.146.026-.031.052-.061.08-.089a.484.484,0,0,1,.454-.122c.094.033.211.125.242.381A1.647,1.647,0,0,1,908.145,432.914Z" transform="translate(-905.426 -428.544)"/>
    </g>
    <g id="Group_1375" data-name="Group 1375" transform="translate(0.773 2.807)">
      <path id="Path_6780" data-name="Path 6780" d="M907.975,452.177c-.157,0-.165-.384-.165-.461s.008-.461.165-.461.165.384.165.461S908.132,452.177,907.975,452.177Zm0-.77a1.168,1.168,0,1,0,.042.309A.954.954,0,0,0,907.975,451.407Z" transform="translate(-907.81 -451.256)" fill="#263238"/>
    </g>
    <g id="Group_1376" data-name="Group 1376" transform="translate(0.995 3.043)">
      <path id="Path_6781" data-name="Path 6781" d="M911.408,453.306h0l-1.743-.015a.062.062,0,0,1,0-.124h0l1.743.015a.062.062,0,0,1,0,.124Z" transform="translate(-909.603 -453.168)" fill="#263238"/>
    </g>
    <g id="Group_1377" data-name="Group 1377" transform="translate(0.708 2.463)">
      <path id="Path_6782" data-name="Path 6782" d="M907.677,448.762a.062.062,0,0,1-.055-.034c-.041-.082-.086-.13-.123-.132s-.087.052-.1.071a.062.062,0,0,1-.1-.066.278.278,0,0,1,.21-.129c.087,0,.164.072.228.2a.062.062,0,0,1-.055.089Z" transform="translate(-907.285 -448.472)" fill="#263238"/>
    </g>
    <g id="Group_1378" data-name="Group 1378" transform="translate(0.675 4.414)">
      <path id="Path_6783" data-name="Path 6783" d="M907.079,464.677a.062.062,0,0,1-.022-.12,1.815,1.815,0,0,0,.477-.287.062.062,0,0,1,.08.094,1.909,1.909,0,0,1-.514.308A.059.059,0,0,1,907.079,464.677Z" transform="translate(-907.017 -464.256)" fill="#263238"/>
    </g>
  </g>
</svg>
